<svg xmlns="http://www.w3.org/2000/svg" width="750" height="315"><g transform="translate(20, 20)"><g transform="translate(0, 260)" style="font-size: 15px; font-family: monospace; font-weight: 300;" fill="none" font-size="10" font-family="sans-serif" text-anchor="middle"><path class="domain" stroke="currentColor" d="M0.5,6V0.5H710.5V6"></path><g class="tick" opacity="1" transform="translate(77.65625,0)"><line stroke="currentColor" y2="6"></line><text fill="currentColor" y="9" dy="0.71em">Scala</text></g><g class="tick" opacity="1" transform="translate(188.59375,0)"><line stroke="currentColor" y2="6"></line><text fill="currentColor" y="9" dy="0.71em">Markdown</text></g><g class="tick" opacity="1" transform="translate(299.53125,0)"><line stroke="currentColor" y2="6"></line><text fill="currentColor" y="9" dy="0.71em">SQL</text></g><g class="tick" opacity="1" transform="translate(410.46875000000006,0)"><line stroke="currentColor" y2="6"></line><text fill="currentColor" y="9" dy="0.71em">JavaScript</text></g><g class="tick" opacity="1" transform="translate(521.40625,0)"><line stroke="currentColor" y2="6"></line><text fill="currentColor" y="9" dy="0.71em">Git Config</text></g><g class="tick" opacity="1" transform="translate(632.3437500000001,0)"><line stroke="currentColor" y2="6"></line><text fill="currentColor" y="9" dy="0.71em">XML</text></g></g><rect x="44.375" y="5.151575193184059" height="254.84842480681593" width="66.5625" fill="#D50657"></rect><rect x="155.3125" y="248.04834555181296" height="11.951654448187043" width="66.5625" fill="#049AE6"></rect><rect x="266.25" y="258.1969486823856" height="1.803051317614404" width="66.5625" fill="#F8C41B"></rect><rect x="377.18750000000006" y="259.7939369922726" height="0.20606300772737995" width="66.5625" fill="#32465B"></rect><rect x="488.12500000000006" y="259.8969684961363" height="0.10303150386368998" width="66.5625" fill="#E45E42"></rect><rect x="599.0625000000001" y="259.94848424806816" height="0.05151575193184499" width="66.5625" fill="#007C5A"></rect><text class="labels" style="fill: #444;" x="44.375" y="-14.848424806815942">49 hrs 47 mins</text><text class="labels" style="fill: #444;" x="155.3125" y="228.04834555181296">2 hrs 32 mins</text><text class="labels" style="fill: #444;" x="266.25" y="238.1969486823856">35 mins</text><text class="labels" style="fill: #444;" x="377.18750000000006" y="239.79393699227262">4 mins</text><text class="labels" style="fill: #444;" x="488.12500000000006" y="239.8969684961363">2 mins</text><text class="labels" style="fill: #444;" x="599.0625000000001" y="239.94848424806816">1 min</text></g></svg>