<svg xmlns="http://www.w3.org/2000/svg" width="625" height="315"><g transform="translate(20, 20)"><g transform="translate(0, 260)" style="font-size: 15px; font-family: monospace; font-weight: 300;" fill="none" font-size="10" font-family="sans-serif" text-anchor="middle"><path class="domain" stroke="currentColor" d="M0.5,6V0.5H585.5V6"></path><g class="tick" opacity="1" transform="translate(75.83333333333334,0)"><line stroke="currentColor" y2="6"></line><text fill="currentColor" y="9" dy="0.71em">Scala</text></g><g class="tick" opacity="1" transform="translate(184.16666666666669,0)"><line stroke="currentColor" y2="6"></line><text fill="currentColor" y="9" dy="0.71em">HTML</text></g><g class="tick" opacity="1" transform="translate(292.5,0)"><line stroke="currentColor" y2="6"></line><text fill="currentColor" y="9" dy="0.71em">PHP</text></g><g class="tick" opacity="1" transform="translate(400.83333333333337,0)"><line stroke="currentColor" y2="6"></line><text fill="currentColor" y="9" dy="0.71em">SQL</text></g><g class="tick" opacity="1" transform="translate(509.16666666666674,0)"><line stroke="currentColor" y2="6"></line><text fill="currentColor" y="9" dy="0.71em">Markdown</text></g></g><rect x="43.33333333333334" y="14.293567894447506" height="245.7064321055525" width="65" fill="#D50657"></rect><rect x="151.66666666666669" y="224.1231445849368" height="35.876855415063204" width="65" fill="#049AE6"></rect><rect x="260" y="257.85596481583286" height="2.1440351841671372" width="65" fill="#F8C41B"></rect><rect x="368.33333333333337" y="257.85596481583286" height="2.1440351841671372" width="65" fill="#32465B"></rect><rect x="476.66666666666674" y="258.4277075316108" height="1.5722924683892074" width="65" fill="#E45E42"></rect><text class="labels" style="fill: #444;" x="43.33333333333334" y="-5.706432105552494">17 hrs 19 mins</text><text class="labels" style="fill: #444;" x="151.66666666666669" y="204.1231445849368">2 hrs 51 mins</text><text class="labels" style="fill: #444;" x="260" y="237.85596481583286">15 mins</text><text class="labels" style="fill: #444;" x="368.33333333333337" y="237.85596481583286">15 mins</text><text class="labels" style="fill: #444;" x="476.66666666666674" y="238.4277075316108">11 mins</text></g></svg>