<svg xmlns="http://www.w3.org/2000/svg" width="750" height="315"><g transform="translate(20, 20)"><g transform="translate(0, 260)" style="font-size: 15px; font-family: monospace; font-weight: 300;" fill="none" font-size="10" font-family="sans-serif" text-anchor="middle"><path class="domain" stroke="currentColor" d="M0.5,6V0.5H710.5V6"></path><g class="tick" opacity="1" transform="translate(77.65625,0)"><line stroke="currentColor" y2="6"></line><text fill="currentColor" y="9" dy="0.71em">TypeScript</text></g><g class="tick" opacity="1" transform="translate(188.59375,0)"><line stroke="currentColor" y2="6"></line><text fill="currentColor" y="9" dy="0.71em">SCSS</text></g><g class="tick" opacity="1" transform="translate(299.53125,0)"><line stroke="currentColor" y2="6"></line><text fill="currentColor" y="9" dy="0.71em">C</text></g><g class="tick" opacity="1" transform="translate(410.46875000000006,0)"><line stroke="currentColor" y2="6"></line><text fill="currentColor" y="9" dy="0.71em">HTML</text></g><g class="tick" opacity="1" transform="translate(521.40625,0)"><line stroke="currentColor" y2="6"></line><text fill="currentColor" y="9" dy="0.71em">Text</text></g><g class="tick" opacity="1" transform="translate(632.3437500000001,0)"><line stroke="currentColor" y2="6"></line><text fill="currentColor" y="9" dy="0.71em">Shell Script</text></g></g><rect x="44.375" y="83.60128617363344" height="176.39871382636656" width="66.5625" fill="#D50657"></rect><rect x="155.3125" y="219.03536977491962" height="40.964630225080384" width="66.5625" fill="#049AE6"></rect><rect x="266.25" y="247.459807073955" height="12.540192926044995" width="66.5625" fill="#F8C41B"></rect><rect x="377.18750000000006" y="254.98392282958199" height="5.016077170418015" width="66.5625" fill="#32465B"></rect><rect x="488.12500000000006" y="255.81993569131834" height="4.180064308681665" width="66.5625" fill="#E45E42"></rect><rect x="599.0625000000001" y="259.1639871382637" height="0.8360128617363216" width="66.5625" fill="#007C5A"></rect><text class="labels" style="fill: #444;" x="44.375" y="63.60128617363344">2 hrs 11 mins</text><text class="labels" style="fill: #444;" x="155.3125" y="199.03536977491962">49 mins</text><text class="labels" style="fill: #444;" x="266.25" y="227.459807073955">15 mins</text><text class="labels" style="fill: #444;" x="377.18750000000006" y="234.98392282958199">6 mins</text><text class="labels" style="fill: #444;" x="488.12500000000006" y="235.81993569131834">5 mins</text><text class="labels" style="fill: #444;" x="599.0625000000001" y="239.16398713826368">1 min</text></g></svg>