<svg xmlns="http://www.w3.org/2000/svg" width="1250" height="315"><g transform="translate(20, 20)"><g transform="translate(0, 260)" style="font-size: 15px; font-family: monospace; font-weight: 300;" fill="none" font-size="10" font-family="sans-serif" text-anchor="middle"><path class="domain" stroke="currentColor" d="M0.5,6V0.5H1210.5V6"></path><g class="tick" opacity="1" transform="translate(81.44230769230771,0)"><line stroke="currentColor" y2="6"></line><text fill="currentColor" y="9" dy="0.71em">Scala</text></g><g class="tick" opacity="1" transform="translate(197.78846153846155,0)"><line stroke="currentColor" y2="6"></line><text fill="currentColor" y="9" dy="0.71em">HTML</text></g><g class="tick" opacity="1" transform="translate(314.13461538461536,0)"><line stroke="currentColor" y2="6"></line><text fill="currentColor" y="9" dy="0.71em">Solidity</text></g><g class="tick" opacity="1" transform="translate(430.4807692307692,0)"><line stroke="currentColor" y2="6"></line><text fill="currentColor" y="9" dy="0.71em">TypeScript</text></g><g class="tick" opacity="1" transform="translate(546.8269230769231,0)"><line stroke="currentColor" y2="6"></line><text fill="currentColor" y="9" dy="0.71em">JSON</text></g><g class="tick" opacity="1" transform="translate(663.1730769230769,0)"><line stroke="currentColor" y2="6"></line><text fill="currentColor" y="9" dy="0.71em">Markdown</text></g><g class="tick" opacity="1" transform="translate(779.5192307692308,0)"><line stroke="currentColor" y2="6"></line><text fill="currentColor" y="9" dy="0.71em">JavaScript</text></g><g class="tick" opacity="1" transform="translate(895.8653846153846,0)"><line stroke="currentColor" y2="6"></line><text fill="currentColor" y="9" dy="0.71em">SCSS</text></g><g class="tick" opacity="1" transform="translate(1012.2115384615385,0)"><line stroke="currentColor" y2="6"></line><text fill="currentColor" y="9" dy="0.71em">SQL</text></g><g class="tick" opacity="1" transform="translate(1128.5576923076924,0)"><line stroke="currentColor" y2="6"></line><text fill="currentColor" y="9" dy="0.71em">Git Config</text></g></g><rect x="46.53846153846155" y="25.92223330009969" height="234.0777666999003" width="69.8076923076923" fill="#D50657"></rect><rect x="162.8846153846154" y="117.42771684945163" height="142.57228315054837" width="69.8076923076923" fill="#049AE6"></rect><rect x="279.2307692307692" y="148.79361914257228" height="111.20638085742772" width="69.8076923076923" fill="#F8C41B"></rect><rect x="395.5769230769231" y="203.23030907278167" height="56.769690927218335" width="69.8076923076923" fill="#32465B"></rect><rect x="511.9230769230769" y="230.44865403788634" height="29.551345962113658" width="69.8076923076923" fill="#E45E42"></rect><rect x="628.2692307692307" y="244.96510468594218" height="15.03489531405782" width="69.8076923076923" fill="#007C5A"></rect><rect x="744.6153846153846" y="253.77866400797606" height="6.221335992023938" width="69.8076923076923" fill="#FC69FF"></rect><rect x="860.9615384615385" y="258.185443668993" height="1.8145563310069974" width="69.8076923076923" fill="#3EC6CF"></rect><rect x="977.3076923076923" y="258.96311066799603" height="1.036889332003966" width="69.8076923076923" fill="#620A79"></rect><rect x="1093.6538461538462" y="259.481555333998" height="0.518444666001983" width="69.8076923076923" fill="#D50657"></rect><text class="labels" style="fill: #444;" x="46.53846153846155" y="5.922233300099691">9 hrs 3 mins</text><text class="labels" style="fill: #444;" x="162.8846153846154" y="97.42771684945163">5 hrs 50 mins</text><text class="labels" style="fill: #444;" x="279.2307692307692" y="128.79361914257228">4 hrs 29 mins</text><text class="labels" style="fill: #444;" x="395.5769230769231" y="183.23030907278167">2 hrs 19 mins</text><text class="labels" style="fill: #444;" x="511.9230769230769" y="210.44865403788634">1 hr 14 mins</text><text class="labels" style="fill: #444;" x="628.2692307692307" y="224.96510468594218">58 mins</text><text class="labels" style="fill: #444;" x="744.6153846153846" y="233.77866400797606">24 mins</text><text class="labels" style="fill: #444;" x="860.9615384615385" y="238.185443668993">7 mins</text><text class="labels" style="fill: #444;" x="977.3076923076923" y="238.96311066799603">4 mins</text><text class="labels" style="fill: #444;" x="1093.6538461538462" y="239.48155533399802">2 mins</text></g></svg>