<svg xmlns="http://www.w3.org/2000/svg" width="1375" height="315"><g transform="translate(20, 20)"><g transform="translate(0, 260)" style="font-size: 15px; font-family: monospace; font-weight: 300;" fill="none" font-size="10" font-family="sans-serif" text-anchor="middle"><path class="domain" stroke="currentColor" d="M0.5,6V0.5H1335.5V6"></path><g class="tick" opacity="1" transform="translate(81.97368421052633,0)"><line stroke="currentColor" y2="6"></line><text fill="currentColor" y="9" dy="0.71em">Solidity</text></g><g class="tick" opacity="1" transform="translate(199.07894736842107,0)"><line stroke="currentColor" y2="6"></line><text fill="currentColor" y="9" dy="0.71em">JavaScript</text></g><g class="tick" opacity="1" transform="translate(316.18421052631584,0)"><line stroke="currentColor" y2="6"></line><text fill="currentColor" y="9" dy="0.71em">Markdown</text></g><g class="tick" opacity="1" transform="translate(433.2894736842106,0)"><line stroke="currentColor" y2="6"></line><text fill="currentColor" y="9" dy="0.71em">Scala</text></g><g class="tick" opacity="1" transform="translate(550.3947368421053,0)"><line stroke="currentColor" y2="6"></line><text fill="currentColor" y="9" dy="0.71em">JSON</text></g><g class="tick" opacity="1" transform="translate(667.5000000000001,0)"><line stroke="currentColor" y2="6"></line><text fill="currentColor" y="9" dy="0.71em">HTML</text></g><g class="tick" opacity="1" transform="translate(784.6052631578948,0)"><line stroke="currentColor" y2="6"></line><text fill="currentColor" y="9" dy="0.71em">TypeScript</text></g><g class="tick" opacity="1" transform="translate(901.7105263157895,0)"><line stroke="currentColor" y2="6"></line><text fill="currentColor" y="9" dy="0.71em">CSS</text></g><g class="tick" opacity="1" transform="translate(1018.8157894736843,0)"><line stroke="currentColor" y2="6"></line><text fill="currentColor" y="9" dy="0.71em">Git Config</text></g><g class="tick" opacity="1" transform="translate(1135.921052631579,0)"><line stroke="currentColor" y2="6"></line><text fill="currentColor" y="9" dy="0.71em">Sublime Text Config</text></g><g class="tick" opacity="1" transform="translate(1253.0263157894738,0)"><line stroke="currentColor" y2="6"></line><text fill="currentColor" y="9" dy="0.71em">Text</text></g></g><rect x="46.84210526315792" y="19.35964259121371" height="240.6403574087863" width="70.26315789473684" fill="#D50657"></rect><rect x="163.94736842105266" y="152.36038719285185" height="107.63961280714815" width="70.26315789473684" fill="#049AE6"></rect><rect x="281.0526315789474" y="159.32985852568876" height="100.67014147431124" width="70.26315789473684" fill="#F8C41B"></rect><rect x="398.15789473684214" y="219.53834698436336" height="40.46165301563664" width="70.26315789473684" fill="#32465B"></rect><rect x="515.2631578947369" y="232.89650037230084" height="27.103499627699165" width="70.26315789473684" fill="#E45E42"></rect><rect x="632.3684210526317" y="239.86597170513775" height="20.134028294862247" width="70.26315789473684" fill="#007C5A"></rect><rect x="749.4736842105264" y="250.90096798212954" height="9.099032017870456" width="70.26315789473684" fill="#FC69FF"></rect><rect x="866.578947368421" y="252.6433358153388" height="7.356664184661213" width="70.26315789473684" fill="#3EC6CF"></rect><rect x="983.6842105263158" y="258.64482501861505" height="1.3551749813849483" width="70.26315789473684" fill="#620A79"></rect><rect x="1100.7894736842106" y="259.8064035740879" height="0.19359642591211923" width="70.26315789473684" fill="#D50657"></rect><rect x="1217.8947368421054" y="259.8064035740879" height="0.19359642591211923" width="70.26315789473684" fill="#049AE6"></rect><text class="labels" style="fill: #444;" x="46.84210526315792" y="-0.64035740878629">12 hrs 43 mins</text><text class="labels" style="fill: #444;" x="163.94736842105266" y="132.36038719285185">5 hrs 56 mins</text><text class="labels" style="fill: #444;" x="281.0526315789474" y="139.32985852568876">5 hrs 20 mins</text><text class="labels" style="fill: #444;" x="398.15789473684214" y="199.53834698436336">2 hrs 9 mins</text><text class="labels" style="fill: #444;" x="515.2631578947369" y="212.89650037230084">1 hr 40 mins</text><text class="labels" style="fill: #444;" x="632.3684210526317" y="219.86597170513775">1 hr 4 mins</text><text class="labels" style="fill: #444;" x="749.4736842105264" y="230.90096798212954">47 mins</text><text class="labels" style="fill: #444;" x="866.578947368421" y="232.6433358153388">38 mins</text><text class="labels" style="fill: #444;" x="983.6842105263158" y="238.64482501861505">7 mins</text><text class="labels" style="fill: #444;" x="1100.7894736842106" y="239.80640357408788">1 min</text><text class="labels" style="fill: #444;" x="1217.8947368421054" y="239.80640357408788">1 min</text></g></svg>