<svg xmlns="http://www.w3.org/2000/svg" width="1125" height="315"><g transform="translate(20, 20)"><g transform="translate(0, 260)" style="font-size: 15px; font-family: monospace; font-weight: 300;" fill="none" font-size="10" font-family="sans-serif" text-anchor="middle"><path class="domain" stroke="currentColor" d="M0.5,6V0.5H1085.5V6"></path><g class="tick" opacity="1" transform="translate(80.79787234042558,0)"><line stroke="currentColor" y2="6"></line><text fill="currentColor" y="9" dy="0.71em">Solidity</text></g><g class="tick" opacity="1" transform="translate(196.2234042553192,0)"><line stroke="currentColor" y2="6"></line><text fill="currentColor" y="9" dy="0.71em">JavaScript</text></g><g class="tick" opacity="1" transform="translate(311.6489361702128,0)"><line stroke="currentColor" y2="6"></line><text fill="currentColor" y="9" dy="0.71em">Scala</text></g><g class="tick" opacity="1" transform="translate(427.07446808510645,0)"><line stroke="currentColor" y2="6"></line><text fill="currentColor" y="9" dy="0.71em">JSON</text></g><g class="tick" opacity="1" transform="translate(542.5,0)"><line stroke="currentColor" y2="6"></line><text fill="currentColor" y="9" dy="0.71em">TypeScript</text></g><g class="tick" opacity="1" transform="translate(657.9255319148937,0)"><line stroke="currentColor" y2="6"></line><text fill="currentColor" y="9" dy="0.71em">Markdown</text></g><g class="tick" opacity="1" transform="translate(773.3510638297872,0)"><line stroke="currentColor" y2="6"></line><text fill="currentColor" y="9" dy="0.71em">Sublime Text Config</text></g><g class="tick" opacity="1" transform="translate(888.776595744681,0)"><line stroke="currentColor" y2="6"></line><text fill="currentColor" y="9" dy="0.71em">C++</text></g><g class="tick" opacity="1" transform="translate(1004.2021276595746,0)"><line stroke="currentColor" y2="6"></line><text fill="currentColor" y="9" dy="0.71em">Git Config</text></g></g><rect x="46.1702127659575" y="57.9064587973274" height="202.0935412026726" width="69.25531914893617" fill="#D50657"></rect><rect x="161.5957446808511" y="65.43429844097997" height="194.56570155902003" width="69.25531914893617" fill="#049AE6"></rect><rect x="277.0212765957447" y="116.97104677060133" height="143.02895322939867" width="69.25531914893617" fill="#F8C41B"></rect><rect x="392.44680851063833" y="185.30066815144767" height="74.69933184855233" width="69.25531914893617" fill="#32465B"></rect><rect x="507.87234042553195" y="185.87973273942092" height="74.12026726057908" width="69.25531914893617" fill="#E45E42"></rect><rect x="623.2978723404256" y="188.7750556792873" height="71.2249443207127" width="69.25531914893617" fill="#007C5A"></rect><rect x="738.7234042553191" y="251.89309576837417" height="8.106904231625833" width="69.25531914893617" fill="#FC69FF"></rect><rect x="854.1489361702129" y="253.05122494432072" height="6.948775055679278" width="69.25531914893617" fill="#3EC6CF"></rect><rect x="969.5744680851064" y="256.52561247216033" height="3.474387527839667" width="69.25531914893617" fill="#620A79"></rect><text class="labels" style="fill: #444;" x="46.1702127659575" y="37.9064587973274">3 hrs 49 mins</text><text class="labels" style="fill: #444;" x="161.5957446808511" y="45.43429844097997">3 hrs 36 mins</text><text class="labels" style="fill: #444;" x="277.0212765957447" y="96.97104677060133">2 hrs 47 mins</text><text class="labels" style="fill: #444;" x="392.44680851063833" y="165.30066815144767">1 hr 29 mins</text><text class="labels" style="fill: #444;" x="507.87234042553195" y="165.87973273942092">1 hr 28 mins</text><text class="labels" style="fill: #444;" x="623.2978723404256" y="168.7750556792873">1 hr 23 mins</text><text class="labels" style="fill: #444;" x="738.7234042553191" y="231.89309576837417">14 mins</text><text class="labels" style="fill: #444;" x="854.1489361702129" y="233.05122494432072">12 mins</text><text class="labels" style="fill: #444;" x="969.5744680851064" y="236.52561247216033">6 mins</text></g></svg>