<svg xmlns="http://www.w3.org/2000/svg" width="1375" height="315"><g transform="translate(20, 20)"><g transform="translate(0, 260)" style="font-size: 15px; font-family: monospace; font-weight: 300;" fill="none" font-size="10" font-family="sans-serif" text-anchor="middle"><path class="domain" stroke="currentColor" d="M0.5,6V0.5H1335.5V6"></path><g class="tick" opacity="1" transform="translate(81.97368421052633,0)"><line stroke="currentColor" y2="6"></line><text fill="currentColor" y="9" dy="0.71em">Scala</text></g><g class="tick" opacity="1" transform="translate(199.07894736842107,0)"><line stroke="currentColor" y2="6"></line><text fill="currentColor" y="9" dy="0.71em">HTML</text></g><g class="tick" opacity="1" transform="translate(316.18421052631584,0)"><line stroke="currentColor" y2="6"></line><text fill="currentColor" y="9" dy="0.71em">Solidity</text></g><g class="tick" opacity="1" transform="translate(433.2894736842106,0)"><line stroke="currentColor" y2="6"></line><text fill="currentColor" y="9" dy="0.71em">CSS</text></g><g class="tick" opacity="1" transform="translate(550.3947368421053,0)"><line stroke="currentColor" y2="6"></line><text fill="currentColor" y="9" dy="0.71em">Markdown</text></g><g class="tick" opacity="1" transform="translate(667.5000000000001,0)"><line stroke="currentColor" y2="6"></line><text fill="currentColor" y="9" dy="0.71em">JavaScript</text></g><g class="tick" opacity="1" transform="translate(784.6052631578948,0)"><line stroke="currentColor" y2="6"></line><text fill="currentColor" y="9" dy="0.71em">JSON</text></g><g class="tick" opacity="1" transform="translate(901.7105263157895,0)"><line stroke="currentColor" y2="6"></line><text fill="currentColor" y="9" dy="0.71em">SCSS</text></g><g class="tick" opacity="1" transform="translate(1018.8157894736843,0)"><line stroke="currentColor" y2="6"></line><text fill="currentColor" y="9" dy="0.71em">TypeScript</text></g><g class="tick" opacity="1" transform="translate(1135.921052631579,0)"><line stroke="currentColor" y2="6"></line><text fill="currentColor" y="9" dy="0.71em">SQL</text></g><g class="tick" opacity="1" transform="translate(1253.0263157894738,0)"><line stroke="currentColor" y2="6"></line><text fill="currentColor" y="9" dy="0.71em">Text</text></g></g><rect x="46.84210526315792" y="27.28226652675762" height="232.7177334732424" width="70.26315789473684" fill="#D50657"></rect><rect x="163.94736842105266" y="33.28436516264424" height="226.71563483735576" width="70.26315789473684" fill="#049AE6"></rect><rect x="281.0526315789474" y="94.6694648478489" height="165.3305351521511" width="70.26315789473684" fill="#F8C41B"></rect><rect x="398.15789473684214" y="247.17733473242393" height="12.82266526757607" width="70.26315789473684" fill="#32465B"></rect><rect x="515.2631578947369" y="247.99580272822664" height="12.004197271773364" width="70.26315789473684" fill="#E45E42"></rect><rect x="632.3684210526317" y="248.26862539349423" height="11.731374606505767" width="70.26315789473684" fill="#007C5A"></rect><rect x="749.4736842105264" y="251.8153200419727" height="8.184679958027289" width="70.26315789473684" fill="#FC69FF"></rect><rect x="866.578947368421" y="258.6358866736621" height="1.364113326337872" width="70.26315789473684" fill="#3EC6CF"></rect><rect x="983.6842105263158" y="258.9087093389297" height="1.0912906610702748" width="70.26315789473684" fill="#620A79"></rect><rect x="1100.7894736842106" y="258.9087093389297" height="1.0912906610702748" width="70.26315789473684" fill="#D50657"></rect><rect x="1217.8947368421054" y="259.45435466946486" height="0.5456453305351374" width="70.26315789473684" fill="#049AE6"></rect><text class="labels" style="fill: #444;" x="46.84210526315792" y="7.2822665267576205">8 hrs 53 mins</text><text class="labels" style="fill: #444;" x="163.94736842105266" y="13.284365162644242">8 hrs 31 mins</text><text class="labels" style="fill: #444;" x="281.0526315789474" y="74.6694648478489">6 hrs 6 mins</text><text class="labels" style="fill: #444;" x="398.15789473684214" y="227.17733473242393">47 mins</text><text class="labels" style="fill: #444;" x="515.2631578947369" y="227.99580272822664">44 mins</text><text class="labels" style="fill: #444;" x="632.3684210526317" y="228.26862539349423">43 mins</text><text class="labels" style="fill: #444;" x="749.4736842105264" y="231.8153200419727">30 mins</text><text class="labels" style="fill: #444;" x="866.578947368421" y="238.63588667366213">5 mins</text><text class="labels" style="fill: #444;" x="983.6842105263158" y="238.90870933892973">4 mins</text><text class="labels" style="fill: #444;" x="1100.7894736842106" y="238.90870933892973">4 mins</text><text class="labels" style="fill: #444;" x="1217.8947368421054" y="239.45435466946486">2 mins</text></g></svg>