<svg xmlns="http://www.w3.org/2000/svg" width="875" height="315"><g transform="translate(20, 20)"><g transform="translate(0, 260)" style="font-size: 15px; font-family: monospace; font-weight: 300;" fill="none" font-size="10" font-family="sans-serif" text-anchor="middle"><path class="domain" stroke="currentColor" d="M0.5,6V0.5H835.5V6"></path><g class="tick" opacity="1" transform="translate(78.98648648648646,0)"><line stroke="currentColor" y2="6"></line><text fill="currentColor" y="9" dy="0.71em">Solidity</text></g><g class="tick" opacity="1" transform="translate(191.82432432432432,0)"><line stroke="currentColor" y2="6"></line><text fill="currentColor" y="9" dy="0.71em">Markdown</text></g><g class="tick" opacity="1" transform="translate(304.6621621621622,0)"><line stroke="currentColor" y2="6"></line><text fill="currentColor" y="9" dy="0.71em">JavaScript</text></g><g class="tick" opacity="1" transform="translate(417.5,0)"><line stroke="currentColor" y2="6"></line><text fill="currentColor" y="9" dy="0.71em">PHP</text></g><g class="tick" opacity="1" transform="translate(530.3378378378379,0)"><line stroke="currentColor" y2="6"></line><text fill="currentColor" y="9" dy="0.71em">SQL</text></g><g class="tick" opacity="1" transform="translate(643.1756756756757,0)"><line stroke="currentColor" y2="6"></line><text fill="currentColor" y="9" dy="0.71em">Scala</text></g><g class="tick" opacity="1" transform="translate(756.0135135135135,0)"><line stroke="currentColor" y2="6"></line><text fill="currentColor" y="9" dy="0.71em">TypeScript</text></g></g><rect x="45.1351351351351" y="50.29013539651837" height="209.70986460348163" width="67.70270270270271" fill="#D50657"></rect><rect x="157.97297297297297" y="242.39845261121857" height="17.601547388781427" width="67.70270270270271" fill="#049AE6"></rect><rect x="270.81081081081084" y="247.4274661508704" height="12.572533849129599" width="67.70270270270271" fill="#F8C41B"></rect><rect x="383.64864864864865" y="252.45647969052226" height="7.543520309477742" width="67.70270270270271" fill="#32465B"></rect><rect x="496.4864864864865" y="253.4622823984526" height="6.537717601547399" width="67.70270270270271" fill="#E45E42"></rect><rect x="609.3243243243244" y="253.4622823984526" height="6.537717601547399" width="67.70270270270271" fill="#007C5A"></rect><rect x="722.1621621621622" y="257.4854932301741" height="2.514506769825914" width="67.70270270270271" fill="#FC69FF"></rect><text class="labels" style="fill: #444;" x="45.1351351351351" y="30.290135396518373">4 hrs 17 mins</text><text class="labels" style="fill: #444;" x="157.97297297297297" y="222.39845261121857">35 mins</text><text class="labels" style="fill: #444;" x="270.81081081081084" y="227.4274661508704">25 mins</text><text class="labels" style="fill: #444;" x="383.64864864864865" y="232.45647969052226">15 mins</text><text class="labels" style="fill: #444;" x="496.4864864864865" y="233.4622823984526">13 mins</text><text class="labels" style="fill: #444;" x="609.3243243243244" y="233.4622823984526">13 mins</text><text class="labels" style="fill: #444;" x="722.1621621621622" y="237.4854932301741">5 mins</text></g></svg>