<svg xmlns="http://www.w3.org/2000/svg" width="1000" height="315"><g transform="translate(20, 20)"><g transform="translate(0, 260)" style="font-size: 15px; font-family: monospace; font-weight: 300;" fill="none" font-size="10" font-family="sans-serif" text-anchor="middle"><path class="domain" stroke="currentColor" d="M0.5,6V0.5H960.5V6"></path><g class="tick" opacity="1" transform="translate(80.00000000000006,0)"><line stroke="currentColor" y2="6"></line><text fill="currentColor" y="9" dy="0.71em">Scala</text></g><g class="tick" opacity="1" transform="translate(194.28571428571433,0)"><line stroke="currentColor" y2="6"></line><text fill="currentColor" y="9" dy="0.71em">Docker</text></g><g class="tick" opacity="1" transform="translate(308.5714285714286,0)"><line stroke="currentColor" y2="6"></line><text fill="currentColor" y="9" dy="0.71em">Markdown</text></g><g class="tick" opacity="1" transform="translate(422.8571428571429,0)"><line stroke="currentColor" y2="6"></line><text fill="currentColor" y="9" dy="0.71em">YAML</text></g><g class="tick" opacity="1" transform="translate(537.1428571428572,0)"><line stroke="currentColor" y2="6"></line><text fill="currentColor" y="9" dy="0.71em">JSON</text></g><g class="tick" opacity="1" transform="translate(651.4285714285714,0)"><line stroke="currentColor" y2="6"></line><text fill="currentColor" y="9" dy="0.71em">JavaScript</text></g><g class="tick" opacity="1" transform="translate(765.7142857142858,0)"><line stroke="currentColor" y2="6"></line><text fill="currentColor" y="9" dy="0.71em">SQL</text></g><g class="tick" opacity="1" transform="translate(880.0000000000001,0)"><line stroke="currentColor" y2="6"></line><text fill="currentColor" y="9" dy="0.71em">Git Config</text></g></g><rect x="45.71428571428578" y="9.942638623326959" height="250.05736137667304" width="68.57142857142857" fill="#D50657"></rect><rect x="160.00000000000006" y="230.17208413001913" height="29.82791586998087" width="68.57142857142857" fill="#049AE6"></rect><rect x="274.28571428571433" y="236.73422562141494" height="23.265774378585064" width="68.57142857142857" fill="#F8C41B"></rect><rect x="388.5714285714286" y="254.23326959847037" height="5.766730401529628" width="68.57142857142857" fill="#32465B"></rect><rect x="502.8571428571429" y="257.21606118546845" height="2.7839388145315525" width="68.57142857142857" fill="#E45E42"></rect><rect x="617.1428571428571" y="257.7131931166348" height="2.286806883365216" width="68.57142857142857" fill="#007C5A"></rect><rect x="731.4285714285714" y="257.7131931166348" height="2.286806883365216" width="68.57142857142857" fill="#FC69FF"></rect><rect x="845.7142857142858" y="259.7017208413002" height="0.29827915869981325" width="68.57142857142857" fill="#3EC6CF"></rect><text class="labels" style="fill: #444;" x="45.71428571428578" y="-10.057361376673041">25 hrs 15 mins</text><text class="labels" style="fill: #444;" x="160.00000000000006" y="210.17208413001913">3 hrs</text><text class="labels" style="fill: #444;" x="274.28571428571433" y="216.73422562141494">2 hrs 34 mins</text><text class="labels" style="fill: #444;" x="388.5714285714286" y="234.23326959847037">58 mins</text><text class="labels" style="fill: #444;" x="502.8571428571429" y="237.21606118546845">28 mins</text><text class="labels" style="fill: #444;" x="617.1428571428571" y="237.71319311663478">23 mins</text><text class="labels" style="fill: #444;" x="731.4285714285714" y="237.71319311663478">23 mins</text><text class="labels" style="fill: #444;" x="845.7142857142858" y="239.7017208413002">3 mins</text></g></svg>