<svg xmlns="http://www.w3.org/2000/svg" width="625" height="315"><g transform="translate(20, 20)"><g transform="translate(0, 260)" style="font-size: 15px; font-family: monospace; font-weight: 300;" fill="none" font-size="10" font-family="sans-serif" text-anchor="middle"><path class="domain" stroke="currentColor" d="M0.5,6V0.5H585.5V6"></path><g class="tick" opacity="1" transform="translate(75.83333333333334,0)"><line stroke="currentColor" y2="6"></line><text fill="currentColor" y="9" dy="0.71em">Python</text></g><g class="tick" opacity="1" transform="translate(184.16666666666669,0)"><line stroke="currentColor" y2="6"></line><text fill="currentColor" y="9" dy="0.71em">TypeScript</text></g><g class="tick" opacity="1" transform="translate(292.5,0)"><line stroke="currentColor" y2="6"></line><text fill="currentColor" y="9" dy="0.71em">YAML</text></g><g class="tick" opacity="1" transform="translate(400.83333333333337,0)"><line stroke="currentColor" y2="6"></line><text fill="currentColor" y="9" dy="0.71em">Markdown</text></g><g class="tick" opacity="1" transform="translate(509.16666666666674,0)"><line stroke="currentColor" y2="6"></line><text fill="currentColor" y="9" dy="0.71em">Git Config</text></g></g><rect x="43.33333333333334" y="211.3821138211382" height="48.617886178861795" width="65" fill="#D50657"></rect><rect x="151.66666666666669" y="217.72357723577235" height="42.27642276422765" width="65" fill="#049AE6"></rect><rect x="260" y="255.77235772357724" height="4.227642276422756" width="65" fill="#F8C41B"></rect><rect x="368.33333333333337" y="255.77235772357724" height="4.227642276422756" width="65" fill="#32465B"></rect><rect x="476.66666666666674" y="257.8861788617886" height="2.1138211382113923" width="65" fill="#E45E42"></rect><text class="labels" style="fill: #444;" x="43.33333333333334" y="191.3821138211382">23 mins</text><text class="labels" style="fill: #444;" x="151.66666666666669" y="197.72357723577235">20 mins</text><text class="labels" style="fill: #444;" x="260" y="235.77235772357724">2 mins</text><text class="labels" style="fill: #444;" x="368.33333333333337" y="235.77235772357724">2 mins</text><text class="labels" style="fill: #444;" x="476.66666666666674" y="237.8861788617886">1 min</text></g></svg>