<svg xmlns="http://www.w3.org/2000/svg" width="1125" height="315"><g transform="translate(20, 20)"><g transform="translate(0, 260)" style="font-size: 15px; font-family: monospace; font-weight: 300;" fill="none" font-size="10" font-family="sans-serif" text-anchor="middle"><path class="domain" stroke="currentColor" d="M0.5,6V0.5H1085.5V6"></path><g class="tick" opacity="1" transform="translate(80.79787234042558,0)"><line stroke="currentColor" y2="6"></line><text fill="currentColor" y="9" dy="0.71em">TypeScript</text></g><g class="tick" opacity="1" transform="translate(196.2234042553192,0)"><line stroke="currentColor" y2="6"></line><text fill="currentColor" y="9" dy="0.71em">C</text></g><g class="tick" opacity="1" transform="translate(311.6489361702128,0)"><line stroke="currentColor" y2="6"></line><text fill="currentColor" y="9" dy="0.71em">Text</text></g><g class="tick" opacity="1" transform="translate(427.07446808510645,0)"><line stroke="currentColor" y2="6"></line><text fill="currentColor" y="9" dy="0.71em">C++</text></g><g class="tick" opacity="1" transform="translate(542.5,0)"><line stroke="currentColor" y2="6"></line><text fill="currentColor" y="9" dy="0.71em">Shell Script</text></g><g class="tick" opacity="1" transform="translate(657.9255319148937,0)"><line stroke="currentColor" y2="6"></line><text fill="currentColor" y="9" dy="0.71em">Scala</text></g><g class="tick" opacity="1" transform="translate(773.3510638297872,0)"><line stroke="currentColor" y2="6"></line><text fill="currentColor" y="9" dy="0.71em">HTML</text></g><g class="tick" opacity="1" transform="translate(888.776595744681,0)"><line stroke="currentColor" y2="6"></line><text fill="currentColor" y="9" dy="0.71em">CSS</text></g><g class="tick" opacity="1" transform="translate(1004.2021276595746,0)"><line stroke="currentColor" y2="6"></line><text fill="currentColor" y="9" dy="0.71em">textmate</text></g></g><rect x="46.1702127659575" y="105.26315789473682" height="154.73684210526318" width="69.25531914893617" fill="#D50657"></rect><rect x="161.5957446808511" y="131.57894736842104" height="128.42105263157896" width="69.25531914893617" fill="#049AE6"></rect><rect x="277.0212765957447" y="238.94736842105263" height="21.05263157894737" width="69.25531914893617" fill="#F8C41B"></rect><rect x="392.44680851063833" y="242.10526315789474" height="17.89473684210526" width="69.25531914893617" fill="#32465B"></rect><rect x="507.87234042553195" y="250.52631578947367" height="9.47368421052633" width="69.25531914893617" fill="#E45E42"></rect><rect x="623.2978723404256" y="253.68421052631578" height="6.3157894736842195" width="69.25531914893617" fill="#007C5A"></rect><rect x="738.7234042553191" y="253.68421052631578" height="6.3157894736842195" width="69.25531914893617" fill="#FC69FF"></rect><rect x="854.1489361702129" y="257.89473684210526" height="2.10526315789474" width="69.25531914893617" fill="#3EC6CF"></rect><rect x="969.5744680851064" y="258.9473684210526" height="1.0526315789473983" width="69.25531914893617" fill="#620A79"></rect><text class="labels" style="fill: #444;" x="46.1702127659575" y="85.26315789473682">1 hr 47 mins</text><text class="labels" style="fill: #444;" x="161.5957446808511" y="111.57894736842104">1 hr 22 mins</text><text class="labels" style="fill: #444;" x="277.0212765957447" y="218.94736842105263">20 mins</text><text class="labels" style="fill: #444;" x="392.44680851063833" y="222.10526315789474">17 mins</text><text class="labels" style="fill: #444;" x="507.87234042553195" y="230.52631578947367">9 mins</text><text class="labels" style="fill: #444;" x="623.2978723404256" y="233.68421052631578">6 mins</text><text class="labels" style="fill: #444;" x="738.7234042553191" y="233.68421052631578">6 mins</text><text class="labels" style="fill: #444;" x="854.1489361702129" y="237.89473684210526">2 mins</text><text class="labels" style="fill: #444;" x="969.5744680851064" y="238.9473684210526">1 min</text></g></svg>