<svg xmlns="http://www.w3.org/2000/svg" width="1500" height="315"><g transform="translate(20, 20)"><g transform="translate(0, 260)" style="font-size: 15px; font-family: monospace; font-weight: 300;" fill="none" font-size="10" font-family="sans-serif" text-anchor="middle"><path class="domain" stroke="currentColor" d="M0.5,6V0.5H1460.5V6"></path><g class="tick" opacity="1" transform="translate(82.4193548387097,0)"><line stroke="currentColor" y2="6"></line><text fill="currentColor" y="9" dy="0.71em">Scala</text></g><g class="tick" opacity="1" transform="translate(200.16129032258067,0)"><line stroke="currentColor" y2="6"></line><text fill="currentColor" y="9" dy="0.71em">Solidity</text></g><g class="tick" opacity="1" transform="translate(317.90322580645164,0)"><line stroke="currentColor" y2="6"></line><text fill="currentColor" y="9" dy="0.71em">HTML</text></g><g class="tick" opacity="1" transform="translate(435.64516129032256,0)"><line stroke="currentColor" y2="6"></line><text fill="currentColor" y="9" dy="0.71em">Markdown</text></g><g class="tick" opacity="1" transform="translate(553.3870967741935,0)"><line stroke="currentColor" y2="6"></line><text fill="currentColor" y="9" dy="0.71em">JavaScript</text></g><g class="tick" opacity="1" transform="translate(671.1290322580645,0)"><line stroke="currentColor" y2="6"></line><text fill="currentColor" y="9" dy="0.71em">CSS</text></g><g class="tick" opacity="1" transform="translate(788.8709677419355,0)"><line stroke="currentColor" y2="6"></line><text fill="currentColor" y="9" dy="0.71em">SCSS</text></g><g class="tick" opacity="1" transform="translate(906.6129032258065,0)"><line stroke="currentColor" y2="6"></line><text fill="currentColor" y="9" dy="0.71em">TypeScript</text></g><g class="tick" opacity="1" transform="translate(1024.3548387096776,0)"><line stroke="currentColor" y2="6"></line><text fill="currentColor" y="9" dy="0.71em">SQL</text></g><g class="tick" opacity="1" transform="translate(1142.096774193548,0)"><line stroke="currentColor" y2="6"></line><text fill="currentColor" y="9" dy="0.71em">Text</text></g><g class="tick" opacity="1" transform="translate(1259.8387096774193,0)"><line stroke="currentColor" y2="6"></line><text fill="currentColor" y="9" dy="0.71em">JSON</text></g><g class="tick" opacity="1" transform="translate(1377.58064516129,0)"><line stroke="currentColor" y2="6"></line><text fill="currentColor" y="9" dy="0.71em">Git Config</text></g></g><rect x="47.09677419354841" y="27.426160337552755" height="232.57383966244726" width="70.64516129032258" fill="#D50657"></rect><rect x="164.8387096774194" y="33.18565400843883" height="226.81434599156117" width="70.64516129032258" fill="#049AE6"></rect><rect x="282.58064516129036" y="108.05907172995781" height="151.9409282700422" width="70.64516129032258" fill="#F8C41B"></rect><rect x="400.3225806451613" y="204.0506329113924" height="55.9493670886076" width="70.64516129032258" fill="#32465B"></rect><rect x="518.0645161290322" y="219.957805907173" height="40.042194092827" width="70.64516129032258" fill="#E45E42"></rect><rect x="635.8064516129032" y="247.10970464135022" height="12.89029535864978" width="70.64516129032258" fill="#007C5A"></rect><rect x="753.5483870967741" y="258.62869198312234" height="1.3713080168776628" width="70.64516129032258" fill="#FC69FF"></rect><rect x="871.2903225806451" y="258.9029535864979" height="1.0970464135020848" width="70.64516129032258" fill="#3EC6CF"></rect><rect x="989.0322580645161" y="258.9029535864979" height="1.0970464135020848" width="70.64516129032258" fill="#620A79"></rect><rect x="1106.7741935483868" y="259.7257383966245" height="0.2742616033755212" width="70.64516129032258" fill="#D50657"></rect><rect x="1224.516129032258" y="259.7257383966245" height="0.2742616033755212" width="70.64516129032258" fill="#049AE6"></rect><rect x="1342.2580645161288" y="259.7257383966245" height="0.2742616033755212" width="70.64516129032258" fill="#F8C41B"></rect><text class="labels" style="fill: #444;" x="47.09677419354841" y="7.426160337552755">8 hrs 48 mins</text><text class="labels" style="fill: #444;" x="164.8387096774194" y="13.185654008438831">8 hrs 27 mins</text><text class="labels" style="fill: #444;" x="282.58064516129036" y="88.05907172995781">5 hrs 54 mins</text><text class="labels" style="fill: #444;" x="400.3225806451613" y="184.0506329113924">2 hrs 4 mins</text><text class="labels" style="fill: #444;" x="518.0645161290322" y="199.957805907173">1 hr 46 mins</text><text class="labels" style="fill: #444;" x="635.8064516129032" y="227.10970464135022">47 mins</text><text class="labels" style="fill: #444;" x="753.5483870967741" y="238.62869198312234">5 mins</text><text class="labels" style="fill: #444;" x="871.2903225806451" y="238.90295358649792">4 mins</text><text class="labels" style="fill: #444;" x="989.0322580645161" y="238.90295358649792">4 mins</text><text class="labels" style="fill: #444;" x="1106.7741935483868" y="239.72573839662448">1 min</text><text class="labels" style="fill: #444;" x="1224.516129032258" y="239.72573839662448">1 min</text><text class="labels" style="fill: #444;" x="1342.2580645161288" y="239.72573839662448">1 min</text></g></svg>