<svg xmlns="http://www.w3.org/2000/svg" width="875" height="315"><g transform="translate(20, 20)"><g transform="translate(0, 260)" style="font-size: 15px; font-family: monospace; font-weight: 300;" fill="none" font-size="10" font-family="sans-serif" text-anchor="middle"><path class="domain" stroke="currentColor" d="M0.5,6V0.5H835.5V6"></path><g class="tick" opacity="1" transform="translate(78.98648648648646,0)"><line stroke="currentColor" y2="6"></line><text fill="currentColor" y="9" dy="0.71em">JSX</text></g><g class="tick" opacity="1" transform="translate(191.82432432432432,0)"><line stroke="currentColor" y2="6"></line><text fill="currentColor" y="9" dy="0.71em">JavaScript</text></g><g class="tick" opacity="1" transform="translate(304.6621621621622,0)"><line stroke="currentColor" y2="6"></line><text fill="currentColor" y="9" dy="0.71em">TypeScript</text></g><g class="tick" opacity="1" transform="translate(417.5,0)"><line stroke="currentColor" y2="6"></line><text fill="currentColor" y="9" dy="0.71em">Dart</text></g><g class="tick" opacity="1" transform="translate(530.3378378378379,0)"><line stroke="currentColor" y2="6"></line><text fill="currentColor" y="9" dy="0.71em">JSON</text></g><g class="tick" opacity="1" transform="translate(643.1756756756757,0)"><line stroke="currentColor" y2="6"></line><text fill="currentColor" y="9" dy="0.71em">Git Config</text></g><g class="tick" opacity="1" transform="translate(756.0135135135135,0)"><line stroke="currentColor" y2="6"></line><text fill="currentColor" y="9" dy="0.71em">LESS</text></g></g><rect x="45.1351351351351" y="21.612635078969245" height="238.38736492103075" width="67.70270270270271" fill="#D50657"></rect><rect x="157.97297297297297" y="185.4364089775561" height="74.56359102244389" width="67.70270270270271" fill="#049AE6"></rect><rect x="270.81081081081084" y="226.93266832917706" height="33.06733167082294" width="67.70270270270271" fill="#F8C41B"></rect><rect x="383.64864864864865" y="254.16458852867828" height="5.83541147132172" width="67.70270270270271" fill="#32465B"></rect><rect x="496.4864864864865" y="257.83873649210307" height="2.1612635078969333" width="67.70270270270271" fill="#E45E42"></rect><rect x="609.3243243243244" y="258.70324189526184" height="1.29675810473816" width="67.70270270270271" fill="#007C5A"></rect><rect x="722.1621621621622" y="258.70324189526184" height="1.29675810473816" width="67.70270270270271" fill="#FC69FF"></rect><text class="labels" style="fill: #444;" x="45.1351351351351" y="1.6126350789692445">11 hrs 3 mins</text><text class="labels" style="fill: #444;" x="157.97297297297297" y="165.4364089775561">3 hrs 45 mins</text><text class="labels" style="fill: #444;" x="270.81081081081084" y="206.93266832917706">1 hr 53 mins</text><text class="labels" style="fill: #444;" x="383.64864864864865" y="234.16458852867828">27 mins</text><text class="labels" style="fill: #444;" x="496.4864864864865" y="237.83873649210307">10 mins</text><text class="labels" style="fill: #444;" x="609.3243243243244" y="238.70324189526184">6 mins</text><text class="labels" style="fill: #444;" x="722.1621621621622" y="238.70324189526184">6 mins</text></g></svg>
