<svg xmlns="http://www.w3.org/2000/svg" width="1125" height="315"><g transform="translate(20, 20)"><g transform="translate(0, 260)" style="font-size: 15px; font-family: monospace; font-weight: 300;" fill="none" font-size="10" font-family="sans-serif" text-anchor="middle"><path class="domain" stroke="currentColor" d="M0.5,6V0.5H1085.5V6"></path><g class="tick" opacity="1" transform="translate(80.79787234042558,0)"><line stroke="currentColor" y2="6"></line><text fill="currentColor" y="9" dy="0.71em">TypeScript</text></g><g class="tick" opacity="1" transform="translate(196.2234042553192,0)"><line stroke="currentColor" y2="6"></line><text fill="currentColor" y="9" dy="0.71em">Scala</text></g><g class="tick" opacity="1" transform="translate(311.6489361702128,0)"><line stroke="currentColor" y2="6"></line><text fill="currentColor" y="9" dy="0.71em">JavaScript</text></g><g class="tick" opacity="1" transform="translate(427.07446808510645,0)"><line stroke="currentColor" y2="6"></line><text fill="currentColor" y="9" dy="0.71em">JSON</text></g><g class="tick" opacity="1" transform="translate(542.5,0)"><line stroke="currentColor" y2="6"></line><text fill="currentColor" y="9" dy="0.71em">Markdown</text></g><g class="tick" opacity="1" transform="translate(657.9255319148937,0)"><line stroke="currentColor" y2="6"></line><text fill="currentColor" y="9" dy="0.71em">HTML</text></g><g class="tick" opacity="1" transform="translate(773.3510638297872,0)"><line stroke="currentColor" y2="6"></line><text fill="currentColor" y="9" dy="0.71em">SCSS</text></g><g class="tick" opacity="1" transform="translate(888.776595744681,0)"><line stroke="currentColor" y2="6"></line><text fill="currentColor" y="9" dy="0.71em">SQL</text></g><g class="tick" opacity="1" transform="translate(1004.2021276595746,0)"><line stroke="currentColor" y2="6"></line><text fill="currentColor" y="9" dy="0.71em">C++</text></g></g><rect x="46.1702127659575" y="35.567715458276346" height="224.43228454172365" width="69.25531914893617" fill="#D50657"></rect><rect x="161.5957446808511" y="181.75102599179206" height="78.24897400820794" width="69.25531914893617" fill="#049AE6"></rect><rect x="277.0212765957447" y="219.45280437756497" height="40.54719562243503" width="69.25531914893617" fill="#F8C41B"></rect><rect x="392.44680851063833" y="251.81942544459645" height="8.180574555403552" width="69.25531914893617" fill="#32465B"></rect><rect x="507.87234042553195" y="256.0875512995896" height="3.91244870041038" width="69.25531914893617" fill="#E45E42"></rect><rect x="623.2978723404256" y="258.57729138166894" height="1.4227086183310576" width="69.25531914893617" fill="#007C5A"></rect><rect x="738.7234042553191" y="259.28864569083447" height="0.7113543091655288" width="69.25531914893617" fill="#FC69FF"></rect><rect x="854.1489361702129" y="259.6443228454172" height="0.3556771545827928" width="69.25531914893617" fill="#3EC6CF"></rect><rect x="969.5744680851064" y="259.6443228454172" height="0.3556771545827928" width="69.25531914893617" fill="#620A79"></rect><text class="labels" style="fill: #444;" x="46.1702127659575" y="15.567715458276346">6 hrs 31 mins</text><text class="labels" style="fill: #444;" x="161.5957446808511" y="161.75102599179206">2 hrs 20 mins</text><text class="labels" style="fill: #444;" x="277.0212765957447" y="199.45280437756497">1 hr 14 mins</text><text class="labels" style="fill: #444;" x="392.44680851063833" y="231.81942544459645">23 mins</text><text class="labels" style="fill: #444;" x="507.87234042553195" y="236.08755129958962">11 mins</text><text class="labels" style="fill: #444;" x="623.2978723404256" y="238.57729138166894">4 mins</text><text class="labels" style="fill: #444;" x="738.7234042553191" y="239.28864569083447">2 mins</text><text class="labels" style="fill: #444;" x="854.1489361702129" y="239.6443228454172">1 min</text><text class="labels" style="fill: #444;" x="969.5744680851064" y="239.6443228454172">1 min</text></g></svg>