<svg xmlns="http://www.w3.org/2000/svg" width="1000" height="315"><g transform="translate(20, 20)"><g transform="translate(0, 260)" style="font-size: 15px; font-family: monospace; font-weight: 300;" fill="none" font-size="10" font-family="sans-serif" text-anchor="middle"><path class="domain" stroke="currentColor" d="M0.5,6V0.5H960.5V6"></path><g class="tick" opacity="1" transform="translate(80.00000000000006,0)"><line stroke="currentColor" y2="6"></line><text fill="currentColor" y="9" dy="0.71em">Solidity</text></g><g class="tick" opacity="1" transform="translate(194.28571428571433,0)"><line stroke="currentColor" y2="6"></line><text fill="currentColor" y="9" dy="0.71em">JavaScript</text></g><g class="tick" opacity="1" transform="translate(308.5714285714286,0)"><line stroke="currentColor" y2="6"></line><text fill="currentColor" y="9" dy="0.71em">Markdown</text></g><g class="tick" opacity="1" transform="translate(422.8571428571429,0)"><line stroke="currentColor" y2="6"></line><text fill="currentColor" y="9" dy="0.71em">Scala</text></g><g class="tick" opacity="1" transform="translate(537.1428571428572,0)"><line stroke="currentColor" y2="6"></line><text fill="currentColor" y="9" dy="0.71em">JSON</text></g><g class="tick" opacity="1" transform="translate(651.4285714285714,0)"><line stroke="currentColor" y2="6"></line><text fill="currentColor" y="9" dy="0.71em">TypeScript</text></g><g class="tick" opacity="1" transform="translate(765.7142857142858,0)"><line stroke="currentColor" y2="6"></line><text fill="currentColor" y="9" dy="0.71em">Git Config</text></g><g class="tick" opacity="1" transform="translate(880.0000000000001,0)"><line stroke="currentColor" y2="6"></line><text fill="currentColor" y="9" dy="0.71em">Sublime Text Config</text></g></g><rect x="45.71428571428578" y="19.35964259121371" height="240.6403574087863" width="68.57142857142857" fill="#D50657"></rect><rect x="160.00000000000006" y="155.84512285927028" height="104.15487714072972" width="68.57142857142857" fill="#049AE6"></rect><rect x="274.28571428571433" y="159.32985852568876" height="100.67014147431124" width="68.57142857142857" fill="#F8C41B"></rect><rect x="388.5714285714286" y="213.9240506329114" height="46.07594936708861" width="68.57142857142857" fill="#32465B"></rect><rect x="502.8571428571429" y="232.89650037230084" height="27.103499627699165" width="68.57142857142857" fill="#E45E42"></rect><rect x="617.1428571428571" y="250.90096798212954" height="9.099032017870456" width="68.57142857142857" fill="#007C5A"></rect><rect x="731.4285714285714" y="258.64482501861505" height="1.3551749813849483" width="68.57142857142857" fill="#FC69FF"></rect><rect x="845.7142857142858" y="259.8064035740879" height="0.19359642591211923" width="68.57142857142857" fill="#3EC6CF"></rect><text class="labels" style="fill: #444;" x="45.71428571428578" y="-0.64035740878629">12 hrs 43 mins</text><text class="labels" style="fill: #444;" x="160.00000000000006" y="135.84512285927028">5 hrs 38 mins</text><text class="labels" style="fill: #444;" x="274.28571428571433" y="139.32985852568876">5 hrs 20 mins</text><text class="labels" style="fill: #444;" x="388.5714285714286" y="193.9240506329114">2 hrs 38 mins</text><text class="labels" style="fill: #444;" x="502.8571428571429" y="212.89650037230084">1 hr 40 mins</text><text class="labels" style="fill: #444;" x="617.1428571428571" y="230.90096798212954">47 mins</text><text class="labels" style="fill: #444;" x="731.4285714285714" y="238.64482501861505">7 mins</text><text class="labels" style="fill: #444;" x="845.7142857142858" y="239.80640357408788">1 min</text></g></svg>