<svg xmlns="http://www.w3.org/2000/svg" width="1375" height="315"><g transform="translate(20, 20)"><g transform="translate(0, 260)" style="font-size: 15px; font-family: monospace; font-weight: 300;" fill="none" font-size="10" font-family="sans-serif" text-anchor="middle"><path class="domain" stroke="currentColor" d="M0.5,6V0.5H1335.5V6"></path><g class="tick" opacity="1" transform="translate(81.97368421052633,0)"><line stroke="currentColor" y2="6"></line><text fill="currentColor" y="9" dy="0.71em">TypeScript</text></g><g class="tick" opacity="1" transform="translate(199.07894736842107,0)"><line stroke="currentColor" y2="6"></line><text fill="currentColor" y="9" dy="0.71em">C</text></g><g class="tick" opacity="1" transform="translate(316.18421052631584,0)"><line stroke="currentColor" y2="6"></line><text fill="currentColor" y="9" dy="0.71em">SCSS</text></g><g class="tick" opacity="1" transform="translate(433.2894736842106,0)"><line stroke="currentColor" y2="6"></line><text fill="currentColor" y="9" dy="0.71em">Text</text></g><g class="tick" opacity="1" transform="translate(550.3947368421053,0)"><line stroke="currentColor" y2="6"></line><text fill="currentColor" y="9" dy="0.71em">C++</text></g><g class="tick" opacity="1" transform="translate(667.5000000000001,0)"><line stroke="currentColor" y2="6"></line><text fill="currentColor" y="9" dy="0.71em">Shell Script</text></g><g class="tick" opacity="1" transform="translate(784.6052631578948,0)"><line stroke="currentColor" y2="6"></line><text fill="currentColor" y="9" dy="0.71em">Scala</text></g><g class="tick" opacity="1" transform="translate(901.7105263157895,0)"><line stroke="currentColor" y2="6"></line><text fill="currentColor" y="9" dy="0.71em">HTML</text></g><g class="tick" opacity="1" transform="translate(1018.8157894736843,0)"><line stroke="currentColor" y2="6"></line><text fill="currentColor" y="9" dy="0.71em">CSS</text></g><g class="tick" opacity="1" transform="translate(1135.921052631579,0)"><line stroke="currentColor" y2="6"></line><text fill="currentColor" y="9" dy="0.71em">textmate</text></g><g class="tick" opacity="1" transform="translate(1253.0263157894738,0)"><line stroke="currentColor" y2="6"></line><text fill="currentColor" y="9" dy="0.71em">JavaScript</text></g></g><rect x="46.84210526315792" y="56.768558951965055" height="203.23144104803495" width="70.26315789473684" fill="#D50657"></rect><rect x="163.94736842105266" y="190.7423580786026" height="69.25764192139741" width="70.26315789473684" fill="#049AE6"></rect><rect x="281.0526315789474" y="232.18340611353713" height="27.81659388646287" width="70.26315789473684" fill="#F8C41B"></rect><rect x="398.15789473684214" y="248.64628820960698" height="11.353711790393021" width="70.26315789473684" fill="#32465B"></rect><rect x="515.2631578947369" y="250.34934497816593" height="9.65065502183407" width="70.26315789473684" fill="#E45E42"></rect><rect x="632.3684210526317" y="254.89082969432314" height="5.109170305676855" width="70.26315789473684" fill="#007C5A"></rect><rect x="749.4736842105264" y="256.5938864628821" height="3.4061135371179034" width="70.26315789473684" fill="#FC69FF"></rect><rect x="866.578947368421" y="256.5938864628821" height="3.4061135371179034" width="70.26315789473684" fill="#3EC6CF"></rect><rect x="983.6842105263158" y="258.8646288209607" height="1.1353711790392822" width="70.26315789473684" fill="#620A79"></rect><rect x="1100.7894736842106" y="259.4323144104804" height="0.5676855895196127" width="70.26315789473684" fill="#D50657"></rect><rect x="1217.8947368421054" y="259.4323144104804" height="0.5676855895196127" width="70.26315789473684" fill="#049AE6"></rect><text class="labels" style="fill: #444;" x="46.84210526315792" y="36.768558951965055">3 hrs 58 mins</text><text class="labels" style="fill: #444;" x="163.94736842105266" y="170.7423580786026">1 hr 22 mins</text><text class="labels" style="fill: #444;" x="281.0526315789474" y="212.18340611353713">49 mins</text><text class="labels" style="fill: #444;" x="398.15789473684214" y="228.64628820960698">20 mins</text><text class="labels" style="fill: #444;" x="515.2631578947369" y="230.34934497816593">17 mins</text><text class="labels" style="fill: #444;" x="632.3684210526317" y="234.89082969432314">9 mins</text><text class="labels" style="fill: #444;" x="749.4736842105264" y="236.5938864628821">6 mins</text><text class="labels" style="fill: #444;" x="866.578947368421" y="236.5938864628821">6 mins</text><text class="labels" style="fill: #444;" x="983.6842105263158" y="238.86462882096072">2 mins</text><text class="labels" style="fill: #444;" x="1100.7894736842106" y="239.4323144104804">1 min</text><text class="labels" style="fill: #444;" x="1217.8947368421054" y="239.4323144104804">1 min</text></g></svg>