<svg xmlns="http://www.w3.org/2000/svg" width="1125" height="315"><g transform="translate(20, 20)"><g transform="translate(0, 260)" style="font-size: 15px; font-family: monospace; font-weight: 300;" fill="none" font-size="10" font-family="sans-serif" text-anchor="middle"><path class="domain" stroke="currentColor" d="M0.5,6V0.5H1085.5V6"></path><g class="tick" opacity="1" transform="translate(80.79787234042558,0)"><line stroke="currentColor" y2="6"></line><text fill="currentColor" y="9" dy="0.71em">Scala</text></g><g class="tick" opacity="1" transform="translate(196.2234042553192,0)"><line stroke="currentColor" y2="6"></line><text fill="currentColor" y="9" dy="0.71em">TypeScript</text></g><g class="tick" opacity="1" transform="translate(311.6489361702128,0)"><line stroke="currentColor" y2="6"></line><text fill="currentColor" y="9" dy="0.71em">Docker</text></g><g class="tick" opacity="1" transform="translate(427.07446808510645,0)"><line stroke="currentColor" y2="6"></line><text fill="currentColor" y="9" dy="0.71em">Markdown</text></g><g class="tick" opacity="1" transform="translate(542.5,0)"><line stroke="currentColor" y2="6"></line><text fill="currentColor" y="9" dy="0.71em">YAML</text></g><g class="tick" opacity="1" transform="translate(657.9255319148937,0)"><line stroke="currentColor" y2="6"></line><text fill="currentColor" y="9" dy="0.71em">JSON</text></g><g class="tick" opacity="1" transform="translate(773.3510638297872,0)"><line stroke="currentColor" y2="6"></line><text fill="currentColor" y="9" dy="0.71em">JavaScript</text></g><g class="tick" opacity="1" transform="translate(888.776595744681,0)"><line stroke="currentColor" y2="6"></line><text fill="currentColor" y="9" dy="0.71em">SQL</text></g><g class="tick" opacity="1" transform="translate(1004.2021276595746,0)"><line stroke="currentColor" y2="6"></line><text fill="currentColor" y="9" dy="0.71em">Git Config</text></g></g><rect x="46.1702127659575" y="14.840182648401818" height="245.15981735159818" width="69.25531914893617" fill="#D50657"></rect><rect x="161.5957446808511" y="192.03196347031965" height="67.96803652968035" width="69.25531914893617" fill="#049AE6"></rect><rect x="277.0212765957447" y="214.44063926940638" height="45.559360730593625" width="69.25531914893617" fill="#F8C41B"></rect><rect x="392.44680851063833" y="222.30593607305937" height="37.69406392694063" width="69.25531914893617" fill="#32465B"></rect><rect x="507.87234042553195" y="244.86301369863014" height="15.13698630136986" width="69.25531914893617" fill="#E45E42"></rect><rect x="623.2978723404256" y="254.50913242009133" height="5.490867579908667" width="69.25531914893617" fill="#007C5A"></rect><rect x="738.7234042553191" y="256.58675799086757" height="3.413242009132432" width="69.25531914893617" fill="#FC69FF"></rect><rect x="854.1489361702129" y="257.32876712328766" height="2.671232876712338" width="69.25531914893617" fill="#3EC6CF"></rect><rect x="969.5744680851064" y="259.4063926940639" height="0.5936073059360751" width="69.25531914893617" fill="#620A79"></rect><text class="labels" style="fill: #444;" x="46.1702127659575" y="-5.159817351598182">16 hrs 52 mins</text><text class="labels" style="fill: #444;" x="161.5957446808511" y="172.03196347031965">4 hrs 58 mins</text><text class="labels" style="fill: #444;" x="277.0212765957447" y="194.44063926940638">3 hrs 7 mins</text><text class="labels" style="fill: #444;" x="392.44680851063833" y="202.30593607305937">2 hrs 54 mins</text><text class="labels" style="fill: #444;" x="507.87234042553195" y="224.86301369863014">1 hr 2 mins</text><text class="labels" style="fill: #444;" x="623.2978723404256" y="234.50913242009133">37 mins</text><text class="labels" style="fill: #444;" x="738.7234042553191" y="236.58675799086757">23 mins</text><text class="labels" style="fill: #444;" x="854.1489361702129" y="237.32876712328766">18 mins</text><text class="labels" style="fill: #444;" x="969.5744680851064" y="239.40639269406392">4 mins</text></g></svg>