<svg xmlns="http://www.w3.org/2000/svg" width="1375" height="315"><g transform="translate(20, 20)"><g transform="translate(0, 260)" style="font-size: 15px; font-family: monospace; font-weight: 300;" fill="none" font-size="10" font-family="sans-serif" text-anchor="middle"><path class="domain" stroke="currentColor" d="M0.5,6V0.5H1335.5V6"></path><g class="tick" opacity="1" transform="translate(81.97368421052633,0)"><line stroke="currentColor" y2="6"></line><text fill="currentColor" y="9" dy="0.71em">TypeScript</text></g><g class="tick" opacity="1" transform="translate(199.07894736842107,0)"><line stroke="currentColor" y2="6"></line><text fill="currentColor" y="9" dy="0.71em">Scala</text></g><g class="tick" opacity="1" transform="translate(316.18421052631584,0)"><line stroke="currentColor" y2="6"></line><text fill="currentColor" y="9" dy="0.71em">JavaScript</text></g><g class="tick" opacity="1" transform="translate(433.2894736842106,0)"><line stroke="currentColor" y2="6"></line><text fill="currentColor" y="9" dy="0.71em">JSON</text></g><g class="tick" opacity="1" transform="translate(550.3947368421053,0)"><line stroke="currentColor" y2="6"></line><text fill="currentColor" y="9" dy="0.71em">Markdown</text></g><g class="tick" opacity="1" transform="translate(667.5000000000001,0)"><line stroke="currentColor" y2="6"></line><text fill="currentColor" y="9" dy="0.71em">Docker</text></g><g class="tick" opacity="1" transform="translate(784.6052631578948,0)"><line stroke="currentColor" y2="6"></line><text fill="currentColor" y="9" dy="0.71em">HTML</text></g><g class="tick" opacity="1" transform="translate(901.7105263157895,0)"><line stroke="currentColor" y2="6"></line><text fill="currentColor" y="9" dy="0.71em">YAML</text></g><g class="tick" opacity="1" transform="translate(1018.8157894736843,0)"><line stroke="currentColor" y2="6"></line><text fill="currentColor" y="9" dy="0.71em">SQL</text></g><g class="tick" opacity="1" transform="translate(1135.921052631579,0)"><line stroke="currentColor" y2="6"></line><text fill="currentColor" y="9" dy="0.71em">C++</text></g><g class="tick" opacity="1" transform="translate(1253.0263157894738,0)"><line stroke="currentColor" y2="6"></line><text fill="currentColor" y="9" dy="0.71em">Git Config</text></g></g><rect x="46.84210526315792" y="21.13821138211382" height="238.8617886178862" width="70.26315789473684" fill="#D50657"></rect><rect x="163.94736842105266" y="213.4959349593496" height="46.5040650406504" width="70.26315789473684" fill="#049AE6"></rect><rect x="281.0526315789474" y="235.6910569105691" height="24.308943089430898" width="70.26315789473684" fill="#F8C41B"></rect><rect x="398.15789473684214" y="253.2357723577236" height="6.76422764227641" width="70.26315789473684" fill="#32465B"></rect><rect x="515.2631578947369" y="253.2357723577236" height="6.76422764227641" width="70.26315789473684" fill="#E45E42"></rect><rect x="632.3684210526317" y="258.7317073170732" height="1.2682926829268126" width="70.26315789473684" fill="#007C5A"></rect><rect x="749.4736842105264" y="259.1544715447154" height="0.8455284552845796" width="70.26315789473684" fill="#FC69FF"></rect><rect x="866.578947368421" y="259.3658536585366" height="0.6341463414634063" width="70.26315789473684" fill="#3EC6CF"></rect><rect x="983.6842105263158" y="259.7886178861788" height="0.21138211382117333" width="70.26315789473684" fill="#620A79"></rect><rect x="1100.7894736842106" y="259.7886178861788" height="0.21138211382117333" width="70.26315789473684" fill="#D50657"></rect><rect x="1217.8947368421054" y="259.7886178861788" height="0.21138211382117333" width="70.26315789473684" fill="#049AE6"></rect><text class="labels" style="fill: #444;" x="46.84210526315792" y="1.1382113821138198">11 hrs 30 mins</text><text class="labels" style="fill: #444;" x="163.94736842105266" y="193.4959349593496">2 hrs 20 mins</text><text class="labels" style="fill: #444;" x="281.0526315789474" y="215.6910569105691">1 hr 15 mins</text><text class="labels" style="fill: #444;" x="398.15789473684214" y="233.2357723577236">32 mins</text><text class="labels" style="fill: #444;" x="515.2631578947369" y="233.2357723577236">32 mins</text><text class="labels" style="fill: #444;" x="632.3684210526317" y="238.7317073170732">6 mins</text><text class="labels" style="fill: #444;" x="749.4736842105264" y="239.15447154471542">4 mins</text><text class="labels" style="fill: #444;" x="866.578947368421" y="239.3658536585366">3 mins</text><text class="labels" style="fill: #444;" x="983.6842105263158" y="239.78861788617883">1 min</text><text class="labels" style="fill: #444;" x="1100.7894736842106" y="239.78861788617883">1 min</text><text class="labels" style="fill: #444;" x="1217.8947368421054" y="239.78861788617883">1 min</text></g></svg>