<svg xmlns="http://www.w3.org/2000/svg" width="1000" height="315"><g transform="translate(20, 20)"><g transform="translate(0, 260)" style="font-size: 15px; font-family: monospace; font-weight: 300;" fill="none" font-size="10" font-family="sans-serif" text-anchor="middle"><path class="domain" stroke="currentColor" d="M0.5,6V0.5H960.5V6"></path><g class="tick" opacity="1" transform="translate(80.00000000000006,0)"><line stroke="currentColor" y2="6"></line><text fill="currentColor" y="9" dy="0.71em">TypeScript</text></g><g class="tick" opacity="1" transform="translate(194.28571428571433,0)"><line stroke="currentColor" y2="6"></line><text fill="currentColor" y="9" dy="0.71em">C</text></g><g class="tick" opacity="1" transform="translate(308.5714285714286,0)"><line stroke="currentColor" y2="6"></line><text fill="currentColor" y="9" dy="0.71em">C++</text></g><g class="tick" opacity="1" transform="translate(422.8571428571429,0)"><line stroke="currentColor" y2="6"></line><text fill="currentColor" y="9" dy="0.71em">Text</text></g><g class="tick" opacity="1" transform="translate(537.1428571428572,0)"><line stroke="currentColor" y2="6"></line><text fill="currentColor" y="9" dy="0.71em">Shell Script</text></g><g class="tick" opacity="1" transform="translate(651.4285714285714,0)"><line stroke="currentColor" y2="6"></line><text fill="currentColor" y="9" dy="0.71em">Scala</text></g><g class="tick" opacity="1" transform="translate(765.7142857142858,0)"><line stroke="currentColor" y2="6"></line><text fill="currentColor" y="9" dy="0.71em">CSS</text></g><g class="tick" opacity="1" transform="translate(880.0000000000001,0)"><line stroke="currentColor" y2="6"></line><text fill="currentColor" y="9" dy="0.71em">textmate</text></g></g><rect x="45.71428571428578" y="105.26315789473682" height="154.73684210526318" width="68.57142857142857" fill="#D50657"></rect><rect x="160.00000000000006" y="131.57894736842104" height="128.42105263157896" width="68.57142857142857" fill="#049AE6"></rect><rect x="274.28571428571433" y="242.10526315789474" height="17.89473684210526" width="68.57142857142857" fill="#F8C41B"></rect><rect x="388.5714285714286" y="245.26315789473685" height="14.73684210526315" width="68.57142857142857" fill="#32465B"></rect><rect x="502.8571428571429" y="252.6315789473684" height="7.368421052631589" width="68.57142857142857" fill="#E45E42"></rect><rect x="617.1428571428571" y="253.68421052631578" height="6.3157894736842195" width="68.57142857142857" fill="#007C5A"></rect><rect x="731.4285714285714" y="257.89473684210526" height="2.10526315789474" width="68.57142857142857" fill="#FC69FF"></rect><rect x="845.7142857142858" y="258.9473684210526" height="1.0526315789473983" width="68.57142857142857" fill="#3EC6CF"></rect><text class="labels" style="fill: #444;" x="45.71428571428578" y="85.26315789473682">1 hr 47 mins</text><text class="labels" style="fill: #444;" x="160.00000000000006" y="111.57894736842104">1 hr 22 mins</text><text class="labels" style="fill: #444;" x="274.28571428571433" y="222.10526315789474">17 mins</text><text class="labels" style="fill: #444;" x="388.5714285714286" y="225.26315789473685">14 mins</text><text class="labels" style="fill: #444;" x="502.8571428571429" y="232.6315789473684">7 mins</text><text class="labels" style="fill: #444;" x="617.1428571428571" y="233.68421052631578">6 mins</text><text class="labels" style="fill: #444;" x="731.4285714285714" y="237.89473684210526">2 mins</text><text class="labels" style="fill: #444;" x="845.7142857142858" y="238.9473684210526">1 min</text></g></svg>