<svg xmlns="http://www.w3.org/2000/svg" width="750" height="315"><g transform="translate(20, 20)"><g transform="translate(0, 260)" style="font-size: 15px; font-family: monospace; font-weight: 300;" fill="none" font-size="10" font-family="sans-serif" text-anchor="middle"><path class="domain" stroke="currentColor" d="M0.5,6V0.5H710.5V6"></path><g class="tick" opacity="1" transform="translate(77.65625,0)"><line stroke="currentColor" y2="6"></line><text fill="currentColor" y="9" dy="0.71em">Scala</text></g><g class="tick" opacity="1" transform="translate(188.59375,0)"><line stroke="currentColor" y2="6"></line><text fill="currentColor" y="9" dy="0.71em">Markdown</text></g><g class="tick" opacity="1" transform="translate(299.53125,0)"><line stroke="currentColor" y2="6"></line><text fill="currentColor" y="9" dy="0.71em">SQL</text></g><g class="tick" opacity="1" transform="translate(410.46875000000006,0)"><line stroke="currentColor" y2="6"></line><text fill="currentColor" y="9" dy="0.71em">JavaScript</text></g><g class="tick" opacity="1" transform="translate(521.40625,0)"><line stroke="currentColor" y2="6"></line><text fill="currentColor" y="9" dy="0.71em">Git Config</text></g><g class="tick" opacity="1" transform="translate(632.3437500000001,0)"><line stroke="currentColor" y2="6"></line><text fill="currentColor" y="9" dy="0.71em">XML</text></g></g><rect x="44.375" y="5.6119145262249015" height="254.3880854737751" width="66.5625" fill="#D50657"></rect><rect x="155.3125" y="246.19469026548674" height="13.805309734513258" width="66.5625" fill="#049AE6"></rect><rect x="266.25" y="258.0358299158213" height="1.9641700841787042" width="66.5625" fill="#F8C41B"></rect><rect x="377.18750000000006" y="259.775523418951" height="0.22447658104897528" width="66.5625" fill="#32465B"></rect><rect x="488.12500000000006" y="259.83164256421327" height="0.16835743578673146" width="66.5625" fill="#E45E42"></rect><rect x="599.0625000000001" y="259.94388085473776" height="0.05611914526224382" width="66.5625" fill="#007C5A"></rect><text class="labels" style="fill: #444;" x="44.375" y="-14.3880854737751">45 hrs 33 mins</text><text class="labels" style="fill: #444;" x="155.3125" y="226.19469026548674">2 hrs 46 mins</text><text class="labels" style="fill: #444;" x="266.25" y="238.0358299158213">35 mins</text><text class="labels" style="fill: #444;" x="377.18750000000006" y="239.77552341895102">4 mins</text><text class="labels" style="fill: #444;" x="488.12500000000006" y="239.83164256421327">3 mins</text><text class="labels" style="fill: #444;" x="599.0625000000001" y="239.94388085473776">1 min</text></g></svg>