<svg xmlns="http://www.w3.org/2000/svg" width="1000" height="315"><g transform="translate(20, 20)"><g transform="translate(0, 260)" style="font-size: 15px; font-family: monospace; font-weight: 300;" fill="none" font-size="10" font-family="sans-serif" text-anchor="middle"><path class="domain" stroke="currentColor" d="M0.5,6V0.5H960.5V6"></path><g class="tick" opacity="1" transform="translate(80.00000000000006,0)"><line stroke="currentColor" y2="6"></line><text fill="currentColor" y="9" dy="0.71em">Solidity</text></g><g class="tick" opacity="1" transform="translate(194.28571428571433,0)"><line stroke="currentColor" y2="6"></line><text fill="currentColor" y="9" dy="0.71em">HTML</text></g><g class="tick" opacity="1" transform="translate(308.5714285714286,0)"><line stroke="currentColor" y2="6"></line><text fill="currentColor" y="9" dy="0.71em">Markdown</text></g><g class="tick" opacity="1" transform="translate(422.8571428571429,0)"><line stroke="currentColor" y2="6"></line><text fill="currentColor" y="9" dy="0.71em">JavaScript</text></g><g class="tick" opacity="1" transform="translate(537.1428571428572,0)"><line stroke="currentColor" y2="6"></line><text fill="currentColor" y="9" dy="0.71em">PHP</text></g><g class="tick" opacity="1" transform="translate(651.4285714285714,0)"><line stroke="currentColor" y2="6"></line><text fill="currentColor" y="9" dy="0.71em">SQL</text></g><g class="tick" opacity="1" transform="translate(765.7142857142858,0)"><line stroke="currentColor" y2="6"></line><text fill="currentColor" y="9" dy="0.71em">Scala</text></g><g class="tick" opacity="1" transform="translate(880.0000000000001,0)"><line stroke="currentColor" y2="6"></line><text fill="currentColor" y="9" dy="0.71em">TypeScript</text></g></g><rect x="45.71428571428578" y="50.29013539651837" height="209.70986460348163" width="68.57142857142857" fill="#D50657"></rect><rect x="160.00000000000006" y="133.7717601547389" height="126.2282398452611" width="68.57142857142857" fill="#049AE6"></rect><rect x="274.28571428571433" y="242.39845261121857" height="17.601547388781427" width="68.57142857142857" fill="#F8C41B"></rect><rect x="388.5714285714286" y="247.4274661508704" height="12.572533849129599" width="68.57142857142857" fill="#32465B"></rect><rect x="502.8571428571429" y="252.45647969052226" height="7.543520309477742" width="68.57142857142857" fill="#E45E42"></rect><rect x="617.1428571428571" y="253.4622823984526" height="6.537717601547399" width="68.57142857142857" fill="#007C5A"></rect><rect x="731.4285714285714" y="253.4622823984526" height="6.537717601547399" width="68.57142857142857" fill="#FC69FF"></rect><rect x="845.7142857142858" y="257.4854932301741" height="2.514506769825914" width="68.57142857142857" fill="#3EC6CF"></rect><text class="labels" style="fill: #444;" x="45.71428571428578" y="30.290135396518373">4 hrs 17 mins</text><text class="labels" style="fill: #444;" x="160.00000000000006" y="113.7717601547389">2 hrs 51 mins</text><text class="labels" style="fill: #444;" x="274.28571428571433" y="222.39845261121857">35 mins</text><text class="labels" style="fill: #444;" x="388.5714285714286" y="227.4274661508704">25 mins</text><text class="labels" style="fill: #444;" x="502.8571428571429" y="232.45647969052226">15 mins</text><text class="labels" style="fill: #444;" x="617.1428571428571" y="233.4622823984526">13 mins</text><text class="labels" style="fill: #444;" x="731.4285714285714" y="233.4622823984526">13 mins</text><text class="labels" style="fill: #444;" x="845.7142857142858" y="237.4854932301741">5 mins</text></g></svg>