<svg xmlns="http://www.w3.org/2000/svg" width="1500" height="315"><g transform="translate(20, 20)"><g transform="translate(0, 260)" style="font-size: 15px; font-family: monospace; font-weight: 300;" fill="none" font-size="10" font-family="sans-serif" text-anchor="middle"><path class="domain" stroke="currentColor" d="M0.5,6V0.5H1460.5V6"></path><g class="tick" opacity="1" transform="translate(82.4193548387097,0)"><line stroke="currentColor" y2="6"></line><text fill="currentColor" y="9" dy="0.71em">Scala</text></g><g class="tick" opacity="1" transform="translate(200.16129032258067,0)"><line stroke="currentColor" y2="6"></line><text fill="currentColor" y="9" dy="0.71em">HTML</text></g><g class="tick" opacity="1" transform="translate(317.90322580645164,0)"><line stroke="currentColor" y2="6"></line><text fill="currentColor" y="9" dy="0.71em">Solidity</text></g><g class="tick" opacity="1" transform="translate(435.64516129032256,0)"><line stroke="currentColor" y2="6"></line><text fill="currentColor" y="9" dy="0.71em">TypeScript</text></g><g class="tick" opacity="1" transform="translate(553.3870967741935,0)"><line stroke="currentColor" y2="6"></line><text fill="currentColor" y="9" dy="0.71em">JSON</text></g><g class="tick" opacity="1" transform="translate(671.1290322580645,0)"><line stroke="currentColor" y2="6"></line><text fill="currentColor" y="9" dy="0.71em">Markdown</text></g><g class="tick" opacity="1" transform="translate(788.8709677419355,0)"><line stroke="currentColor" y2="6"></line><text fill="currentColor" y="9" dy="0.71em">CSS</text></g><g class="tick" opacity="1" transform="translate(906.6129032258065,0)"><line stroke="currentColor" y2="6"></line><text fill="currentColor" y="9" dy="0.71em">JavaScript</text></g><g class="tick" opacity="1" transform="translate(1024.3548387096776,0)"><line stroke="currentColor" y2="6"></line><text fill="currentColor" y="9" dy="0.71em">SCSS</text></g><g class="tick" opacity="1" transform="translate(1142.096774193548,0)"><line stroke="currentColor" y2="6"></line><text fill="currentColor" y="9" dy="0.71em">SQL</text></g><g class="tick" opacity="1" transform="translate(1259.8387096774193,0)"><line stroke="currentColor" y2="6"></line><text fill="currentColor" y="9" dy="0.71em">Git Config</text></g><g class="tick" opacity="1" transform="translate(1377.58064516129,0)"><line stroke="currentColor" y2="6"></line><text fill="currentColor" y="9" dy="0.71em">Text</text></g></g><rect x="47.09677419354841" y="27.28226652675762" height="232.7177334732424" width="70.64516129032258" fill="#D50657"></rect><rect x="164.8387096774194" y="33.28436516264424" height="226.71563483735576" width="70.64516129032258" fill="#049AE6"></rect><rect x="282.58064516129036" y="142.95907660020987" height="117.04092339979013" width="70.64516129032258" fill="#F8C41B"></rect><rect x="400.3225806451613" y="202.9800629590766" height="57.019937040923395" width="70.64516129032258" fill="#32465B"></rect><rect x="518.0645161290322" y="230.53515215110178" height="29.464847848898216" width="70.64516129032258" fill="#E45E42"></rect><rect x="635.8064516129032" y="244.1762854144806" height="15.823714585519411" width="70.64516129032258" fill="#007C5A"></rect><rect x="753.5483870967741" y="247.17733473242393" height="12.82266526757607" width="70.64516129032258" fill="#FC69FF"></rect><rect x="871.2903225806451" y="248.5414480587618" height="11.458551941238198" width="70.64516129032258" fill="#3EC6CF"></rect><rect x="989.0322580645161" y="258.6358866736621" height="1.364113326337872" width="70.64516129032258" fill="#620A79"></rect><rect x="1106.7741935483868" y="258.9087093389297" height="1.0912906610702748" width="70.64516129032258" fill="#D50657"></rect><rect x="1224.516129032258" y="259.45435466946486" height="0.5456453305351374" width="70.64516129032258" fill="#049AE6"></rect><rect x="1342.2580645161288" y="259.45435466946486" height="0.5456453305351374" width="70.64516129032258" fill="#F8C41B"></rect><text class="labels" style="fill: #444;" x="47.09677419354841" y="7.2822665267576205">8 hrs 53 mins</text><text class="labels" style="fill: #444;" x="164.8387096774194" y="13.284365162644242">8 hrs 31 mins</text><text class="labels" style="fill: #444;" x="282.58064516129036" y="122.95907660020987">4 hrs 29 mins</text><text class="labels" style="fill: #444;" x="400.3225806451613" y="182.9800629590766">2 hrs 9 mins</text><text class="labels" style="fill: #444;" x="518.0645161290322" y="210.53515215110178">1 hr 8 mins</text><text class="labels" style="fill: #444;" x="635.8064516129032" y="224.1762854144806">58 mins</text><text class="labels" style="fill: #444;" x="753.5483870967741" y="227.17733473242393">47 mins</text><text class="labels" style="fill: #444;" x="871.2903225806451" y="228.5414480587618">42 mins</text><text class="labels" style="fill: #444;" x="989.0322580645161" y="238.63588667366213">5 mins</text><text class="labels" style="fill: #444;" x="1106.7741935483868" y="238.90870933892973">4 mins</text><text class="labels" style="fill: #444;" x="1224.516129032258" y="239.45435466946486">2 mins</text><text class="labels" style="fill: #444;" x="1342.2580645161288" y="239.45435466946486">2 mins</text></g></svg>