<svg xmlns="http://www.w3.org/2000/svg" width="1375" height="315"><g transform="translate(20, 20)"><g transform="translate(0, 260)" style="font-size: 15px; font-family: monospace; font-weight: 300;" fill="none" font-size="10" font-family="sans-serif" text-anchor="middle"><path class="domain" stroke="currentColor" d="M0.5,6V0.5H1335.5V6"></path><g class="tick" opacity="1" transform="translate(81.97368421052633,0)"><line stroke="currentColor" y2="6"></line><text fill="currentColor" y="9" dy="0.71em">Solidity</text></g><g class="tick" opacity="1" transform="translate(199.07894736842107,0)"><line stroke="currentColor" y2="6"></line><text fill="currentColor" y="9" dy="0.71em">HTML</text></g><g class="tick" opacity="1" transform="translate(316.18421052631584,0)"><line stroke="currentColor" y2="6"></line><text fill="currentColor" y="9" dy="0.71em">JavaScript</text></g><g class="tick" opacity="1" transform="translate(433.2894736842106,0)"><line stroke="currentColor" y2="6"></line><text fill="currentColor" y="9" dy="0.71em">Markdown</text></g><g class="tick" opacity="1" transform="translate(550.3947368421053,0)"><line stroke="currentColor" y2="6"></line><text fill="currentColor" y="9" dy="0.71em">Scala</text></g><g class="tick" opacity="1" transform="translate(667.5000000000001,0)"><line stroke="currentColor" y2="6"></line><text fill="currentColor" y="9" dy="0.71em">CSS</text></g><g class="tick" opacity="1" transform="translate(784.6052631578948,0)"><line stroke="currentColor" y2="6"></line><text fill="currentColor" y="9" dy="0.71em">JSON</text></g><g class="tick" opacity="1" transform="translate(901.7105263157895,0)"><line stroke="currentColor" y2="6"></line><text fill="currentColor" y="9" dy="0.71em">TypeScript</text></g><g class="tick" opacity="1" transform="translate(1018.8157894736843,0)"><line stroke="currentColor" y2="6"></line><text fill="currentColor" y="9" dy="0.71em">SCSS</text></g><g class="tick" opacity="1" transform="translate(1135.921052631579,0)"><line stroke="currentColor" y2="6"></line><text fill="currentColor" y="9" dy="0.71em">Text</text></g><g class="tick" opacity="1" transform="translate(1253.0263157894738,0)"><line stroke="currentColor" y2="6"></line><text fill="currentColor" y="9" dy="0.71em">Git Config</text></g></g><rect x="46.84210526315792" y="19.519519519519513" height="240.48048048048048" width="70.26315789473684" fill="#D50657"></rect><rect x="163.94736842105266" y="158.6936936936937" height="101.30630630630631" width="70.26315789473684" fill="#049AE6"></rect><rect x="281.0526315789474" y="160.06006006006007" height="99.93993993993993" width="70.26315789473684" fill="#F8C41B"></rect><rect x="398.15789473684214" y="171.18618618618618" height="88.81381381381382" width="70.26315789473684" fill="#32465B"></rect><rect x="515.2631578947369" y="172.35735735735736" height="87.64264264264264" width="70.26315789473684" fill="#E45E42"></rect><rect x="632.3684210526317" y="250.82582582582583" height="9.17417417417417" width="70.26315789473684" fill="#007C5A"></rect><rect x="749.4736842105264" y="255.12012012012013" height="4.879879879879866" width="70.26315789473684" fill="#FC69FF"></rect><rect x="866.578947368421" y="259.024024024024" height="0.9759759759759845" width="70.26315789473684" fill="#3EC6CF"></rect><rect x="983.6842105263158" y="259.024024024024" height="0.9759759759759845" width="70.26315789473684" fill="#620A79"></rect><rect x="1100.7894736842106" y="259.8048048048048" height="0.1951951951951969" width="70.26315789473684" fill="#D50657"></rect><rect x="1217.8947368421054" y="259.8048048048048" height="0.1951951951951969" width="70.26315789473684" fill="#049AE6"></rect><text class="labels" style="fill: #444;" x="46.84210526315792" y="-0.4804804804804874">12 hrs 32 mins</text><text class="labels" style="fill: #444;" x="163.94736842105266" y="138.6936936936937">5 hrs 19 mins</text><text class="labels" style="fill: #444;" x="281.0526315789474" y="140.06006006006007">5 hrs 12 mins</text><text class="labels" style="fill: #444;" x="398.15789473684214" y="151.18618618618618">4 hrs 55 mins</text><text class="labels" style="fill: #444;" x="515.2631578947369" y="152.35735735735736">4 hrs 49 mins</text><text class="labels" style="fill: #444;" x="632.3684210526317" y="230.82582582582583">47 mins</text><text class="labels" style="fill: #444;" x="749.4736842105264" y="235.12012012012013">25 mins</text><text class="labels" style="fill: #444;" x="866.578947368421" y="239.02402402402402">5 mins</text><text class="labels" style="fill: #444;" x="983.6842105263158" y="239.02402402402402">5 mins</text><text class="labels" style="fill: #444;" x="1100.7894736842106" y="239.8048048048048">1 min</text><text class="labels" style="fill: #444;" x="1217.8947368421054" y="239.8048048048048">1 min</text></g></svg>