<svg xmlns="http://www.w3.org/2000/svg" width="1250" height="315"><g transform="translate(20, 20)"><g transform="translate(0, 260)" style="font-size: 15px; font-family: monospace; font-weight: 300;" fill="none" font-size="10" font-family="sans-serif" text-anchor="middle"><path class="domain" stroke="currentColor" d="M0.5,6V0.5H1210.5V6"></path><g class="tick" opacity="1" transform="translate(81.44230769230771,0)"><line stroke="currentColor" y2="6"></line><text fill="currentColor" y="9" dy="0.71em">TypeScript</text></g><g class="tick" opacity="1" transform="translate(197.78846153846155,0)"><line stroke="currentColor" y2="6"></line><text fill="currentColor" y="9" dy="0.71em">Scala</text></g><g class="tick" opacity="1" transform="translate(314.13461538461536,0)"><line stroke="currentColor" y2="6"></line><text fill="currentColor" y="9" dy="0.71em">Docker</text></g><g class="tick" opacity="1" transform="translate(430.4807692307692,0)"><line stroke="currentColor" y2="6"></line><text fill="currentColor" y="9" dy="0.71em">Markdown</text></g><g class="tick" opacity="1" transform="translate(546.8269230769231,0)"><line stroke="currentColor" y2="6"></line><text fill="currentColor" y="9" dy="0.71em">JavaScript</text></g><g class="tick" opacity="1" transform="translate(663.1730769230769,0)"><line stroke="currentColor" y2="6"></line><text fill="currentColor" y="9" dy="0.71em">YAML</text></g><g class="tick" opacity="1" transform="translate(779.5192307692308,0)"><line stroke="currentColor" y2="6"></line><text fill="currentColor" y="9" dy="0.71em">JSON</text></g><g class="tick" opacity="1" transform="translate(895.8653846153846,0)"><line stroke="currentColor" y2="6"></line><text fill="currentColor" y="9" dy="0.71em">SQL</text></g><g class="tick" opacity="1" transform="translate(1012.2115384615385,0)"><line stroke="currentColor" y2="6"></line><text fill="currentColor" y="9" dy="0.71em">Git Config</text></g><g class="tick" opacity="1" transform="translate(1128.5576923076924,0)"><line stroke="currentColor" y2="6"></line><text fill="currentColor" y="9" dy="0.71em">HTML</text></g></g><rect x="46.53846153846155" y="21.31147540983606" height="238.68852459016395" width="69.8076923076923" fill="#D50657"></rect><rect x="162.8846153846154" y="63.508196721311435" height="196.49180327868856" width="69.8076923076923" fill="#049AE6"></rect><rect x="279.2307692307692" y="194.5737704918033" height="65.42622950819671" width="69.8076923076923" fill="#F8C41B"></rect><rect x="395.5769230769231" y="194.78688524590163" height="65.21311475409837" width="69.8076923076923" fill="#32465B"></rect><rect x="511.9230769230769" y="232.29508196721312" height="27.70491803278688" width="69.8076923076923" fill="#E45E42"></rect><rect x="628.2692307692307" y="238.2622950819672" height="21.73770491803279" width="69.8076923076923" fill="#007C5A"></rect><rect x="744.6153846153846" y="249.7704918032787" height="10.229508196721298" width="69.8076923076923" fill="#FC69FF"></rect><rect x="860.9615384615385" y="257.016393442623" height="2.9836065573770156" width="69.8076923076923" fill="#3EC6CF"></rect><rect x="977.3076923076923" y="259.1475409836066" height="0.8524590163934249" width="69.8076923076923" fill="#620A79"></rect><rect x="1093.6538461538462" y="259.1475409836066" height="0.8524590163934249" width="69.8076923076923" fill="#D50657"></rect><text class="labels" style="fill: #444;" x="46.53846153846155" y="1.31147540983606">11 hrs 20 mins</text><text class="labels" style="fill: #444;" x="162.8846153846154" y="43.508196721311435">9 hrs 22 mins</text><text class="labels" style="fill: #444;" x="279.2307692307692" y="174.5737704918033">3 hrs 7 mins</text><text class="labels" style="fill: #444;" x="395.5769230769231" y="174.78688524590163">3 hrs 6 mins</text><text class="labels" style="fill: #444;" x="511.9230769230769" y="212.29508196721312">1 hr 30 mins</text><text class="labels" style="fill: #444;" x="628.2692307692307" y="218.2622950819672">1 hr 2 mins</text><text class="labels" style="fill: #444;" x="744.6153846153846" y="229.7704918032787">48 mins</text><text class="labels" style="fill: #444;" x="860.9615384615385" y="237.01639344262298">14 mins</text><text class="labels" style="fill: #444;" x="977.3076923076923" y="239.14754098360658">4 mins</text><text class="labels" style="fill: #444;" x="1093.6538461538462" y="239.14754098360658">4 mins</text></g></svg>