<svg xmlns="http://www.w3.org/2000/svg" width="625" height="315"><g transform="translate(20, 20)"><g transform="translate(0, 260)" style="font-size: 15px; font-family: monospace; font-weight: 300;" fill="none" font-size="10" font-family="sans-serif" text-anchor="middle"><path class="domain" stroke="currentColor" d="M0.5,6V0.5H585.5V6"></path><g class="tick" opacity="1" transform="translate(75.83333333333334,0)"><line stroke="currentColor" y2="6"></line><text fill="currentColor" y="9" dy="0.71em">Solidity</text></g><g class="tick" opacity="1" transform="translate(184.16666666666669,0)"><line stroke="currentColor" y2="6"></line><text fill="currentColor" y="9" dy="0.71em">Markdown</text></g><g class="tick" opacity="1" transform="translate(292.5,0)"><line stroke="currentColor" y2="6"></line><text fill="currentColor" y="9" dy="0.71em">JavaScript</text></g><g class="tick" opacity="1" transform="translate(400.83333333333337,0)"><line stroke="currentColor" y2="6"></line><text fill="currentColor" y="9" dy="0.71em">Scala</text></g><g class="tick" opacity="1" transform="translate(509.16666666666674,0)"><line stroke="currentColor" y2="6"></line><text fill="currentColor" y="9" dy="0.71em">TypeScript</text></g></g><rect x="43.33333333333334" y="50.29013539651837" height="209.70986460348163" width="65" fill="#D50657"></rect><rect x="151.66666666666669" y="243.90715667311412" height="16.092843326885884" width="65" fill="#049AE6"></rect><rect x="260" y="247.4274661508704" height="12.572533849129599" width="65" fill="#F8C41B"></rect><rect x="368.33333333333337" y="256.9825918762089" height="3.0174081237910855" width="65" fill="#32465B"></rect><rect x="476.66666666666674" y="257.4854932301741" height="2.514506769825914" width="65" fill="#E45E42"></rect><text class="labels" style="fill: #444;" x="43.33333333333334" y="30.290135396518373">4 hrs 17 mins</text><text class="labels" style="fill: #444;" x="151.66666666666669" y="223.90715667311412">32 mins</text><text class="labels" style="fill: #444;" x="260" y="227.4274661508704">25 mins</text><text class="labels" style="fill: #444;" x="368.33333333333337" y="236.98259187620891">6 mins</text><text class="labels" style="fill: #444;" x="476.66666666666674" y="237.4854932301741">5 mins</text></g></svg>