<svg xmlns="http://www.w3.org/2000/svg" width="625" height="315"><g transform="translate(20, 20)"><g transform="translate(0, 260)" style="font-size: 15px; font-family: monospace; font-weight: 300;" fill="none" font-size="10" font-family="sans-serif" text-anchor="middle"><path class="domain" stroke="currentColor" d="M0.5,6V0.5H585.5V6"></path><g class="tick" opacity="1" transform="translate(75.83333333333334,0)"><line stroke="currentColor" y2="6"></line><text fill="currentColor" y="9" dy="0.71em">TypeScript</text></g><g class="tick" opacity="1" transform="translate(184.16666666666669,0)"><line stroke="currentColor" y2="6"></line><text fill="currentColor" y="9" dy="0.71em">SCSS</text></g><g class="tick" opacity="1" transform="translate(292.5,0)"><line stroke="currentColor" y2="6"></line><text fill="currentColor" y="9" dy="0.71em">HTML</text></g><g class="tick" opacity="1" transform="translate(400.83333333333337,0)"><line stroke="currentColor" y2="6"></line><text fill="currentColor" y="9" dy="0.71em">Text</text></g><g class="tick" opacity="1" transform="translate(509.16666666666674,0)"><line stroke="currentColor" y2="6"></line><text fill="currentColor" y="9" dy="0.71em">Shell Script</text></g></g><rect x="43.33333333333334" y="83.60128617363344" height="176.39871382636656" width="65" fill="#D50657"></rect><rect x="151.66666666666669" y="219.03536977491962" height="40.964630225080384" width="65" fill="#049AE6"></rect><rect x="260" y="254.98392282958199" height="5.016077170418015" width="65" fill="#F8C41B"></rect><rect x="368.33333333333337" y="255.81993569131834" height="4.180064308681665" width="65" fill="#32465B"></rect><rect x="476.66666666666674" y="259.1639871382637" height="0.8360128617363216" width="65" fill="#E45E42"></rect><text class="labels" style="fill: #444;" x="43.33333333333334" y="63.60128617363344">2 hrs 11 mins</text><text class="labels" style="fill: #444;" x="151.66666666666669" y="199.03536977491962">49 mins</text><text class="labels" style="fill: #444;" x="260" y="234.98392282958199">6 mins</text><text class="labels" style="fill: #444;" x="368.33333333333337" y="235.81993569131834">5 mins</text><text class="labels" style="fill: #444;" x="476.66666666666674" y="239.16398713826368">1 min</text></g></svg>