<svg xmlns="http://www.w3.org/2000/svg" width="1125" height="315"><g transform="translate(20, 20)"><g transform="translate(0, 260)" style="font-size: 15px; font-family: monospace; font-weight: 300;" fill="none" font-size="10" font-family="sans-serif" text-anchor="middle"><path class="domain" stroke="currentColor" d="M0.5,6V0.5H1085.5V6"></path><g class="tick" opacity="1" transform="translate(80.79787234042558,0)"><line stroke="currentColor" y2="6"></line><text fill="currentColor" y="9" dy="0.71em">Solidity</text></g><g class="tick" opacity="1" transform="translate(196.2234042553192,0)"><line stroke="currentColor" y2="6"></line><text fill="currentColor" y="9" dy="0.71em">JavaScript</text></g><g class="tick" opacity="1" transform="translate(311.6489361702128,0)"><line stroke="currentColor" y2="6"></line><text fill="currentColor" y="9" dy="0.71em">Markdown</text></g><g class="tick" opacity="1" transform="translate(427.07446808510645,0)"><line stroke="currentColor" y2="6"></line><text fill="currentColor" y="9" dy="0.71em">Scala</text></g><g class="tick" opacity="1" transform="translate(542.5,0)"><line stroke="currentColor" y2="6"></line><text fill="currentColor" y="9" dy="0.71em">JSON</text></g><g class="tick" opacity="1" transform="translate(657.9255319148937,0)"><line stroke="currentColor" y2="6"></line><text fill="currentColor" y="9" dy="0.71em">TypeScript</text></g><g class="tick" opacity="1" transform="translate(773.3510638297872,0)"><line stroke="currentColor" y2="6"></line><text fill="currentColor" y="9" dy="0.71em">Sublime Text Config</text></g><g class="tick" opacity="1" transform="translate(888.776595744681,0)"><line stroke="currentColor" y2="6"></line><text fill="currentColor" y="9" dy="0.71em">C++</text></g><g class="tick" opacity="1" transform="translate(1004.2021276595746,0)"><line stroke="currentColor" y2="6"></line><text fill="currentColor" y="9" dy="0.71em">Git Config</text></g></g><rect x="46.1702127659575" y="50.38759689922481" height="209.6124031007752" width="69.25531914893617" fill="#D50657"></rect><rect x="161.5957446808511" y="53.41085271317833" height="206.58914728682169" width="69.25531914893617" fill="#049AE6"></rect><rect x="277.0212765957447" y="96.24031007751938" height="163.75968992248062" width="69.25531914893617" fill="#F8C41B"></rect><rect x="392.44680851063833" y="135.54263565891475" height="124.45736434108525" width="69.25531914893617" fill="#32465B"></rect><rect x="507.87234042553195" y="189.45736434108525" height="70.54263565891475" width="69.25531914893617" fill="#E45E42"></rect><rect x="623.2978723404256" y="195.50387596899225" height="64.49612403100775" width="69.25531914893617" fill="#007C5A"></rect><rect x="738.7234042553191" y="252.9457364341085" height="7.054263565891489" width="69.25531914893617" fill="#FC69FF"></rect><rect x="854.1489361702129" y="253.953488372093" height="6.046511627906995" width="69.25531914893617" fill="#3EC6CF"></rect><rect x="969.5744680851064" y="256.9767441860465" height="3.023255813953483" width="69.25531914893617" fill="#620A79"></rect><text class="labels" style="fill: #444;" x="46.1702127659575" y="30.38759689922481">4 hrs 16 mins</text><text class="labels" style="fill: #444;" x="161.5957446808511" y="33.41085271317833">4 hrs 10 mins</text><text class="labels" style="fill: #444;" x="277.0212765957447" y="76.24031007751938">3 hrs 25 mins</text><text class="labels" style="fill: #444;" x="392.44680851063833" y="115.54263565891475">2 hrs 47 mins</text><text class="labels" style="fill: #444;" x="507.87234042553195" y="169.45736434108525">1 hr 40 mins</text><text class="labels" style="fill: #444;" x="623.2978723404256" y="175.50387596899225">1 hr 28 mins</text><text class="labels" style="fill: #444;" x="738.7234042553191" y="232.9457364341085">14 mins</text><text class="labels" style="fill: #444;" x="854.1489361702129" y="233.953488372093">12 mins</text><text class="labels" style="fill: #444;" x="969.5744680851064" y="236.97674418604652">6 mins</text></g></svg>