<svg xmlns="http://www.w3.org/2000/svg" width="1250" height="315"><g transform="translate(20, 20)"><g transform="translate(0, 260)" style="font-size: 15px; font-family: monospace; font-weight: 300;" fill="none" font-size="10" font-family="sans-serif" text-anchor="middle"><path class="domain" stroke="currentColor" d="M0.5,6V0.5H1210.5V6"></path><g class="tick" opacity="1" transform="translate(81.44230769230771,0)"><line stroke="currentColor" y2="6"></line><text fill="currentColor" y="9" dy="0.71em">Scala</text></g><g class="tick" opacity="1" transform="translate(197.78846153846155,0)"><line stroke="currentColor" y2="6"></line><text fill="currentColor" y="9" dy="0.71em">TypeScript</text></g><g class="tick" opacity="1" transform="translate(314.13461538461536,0)"><line stroke="currentColor" y2="6"></line><text fill="currentColor" y="9" dy="0.71em">Solidity</text></g><g class="tick" opacity="1" transform="translate(430.4807692307692,0)"><line stroke="currentColor" y2="6"></line><text fill="currentColor" y="9" dy="0.71em">Markdown</text></g><g class="tick" opacity="1" transform="translate(546.8269230769231,0)"><line stroke="currentColor" y2="6"></line><text fill="currentColor" y="9" dy="0.71em">JSON</text></g><g class="tick" opacity="1" transform="translate(663.1730769230769,0)"><line stroke="currentColor" y2="6"></line><text fill="currentColor" y="9" dy="0.71em">JavaScript</text></g><g class="tick" opacity="1" transform="translate(779.5192307692308,0)"><line stroke="currentColor" y2="6"></line><text fill="currentColor" y="9" dy="0.71em">SCSS</text></g><g class="tick" opacity="1" transform="translate(895.8653846153846,0)"><line stroke="currentColor" y2="6"></line><text fill="currentColor" y="9" dy="0.71em">Git Config</text></g><g class="tick" opacity="1" transform="translate(1012.2115384615385,0)"><line stroke="currentColor" y2="6"></line><text fill="currentColor" y="9" dy="0.71em">SQL</text></g><g class="tick" opacity="1" transform="translate(1128.5576923076924,0)"><line stroke="currentColor" y2="6"></line><text fill="currentColor" y="9" dy="0.71em">C++</text></g></g><rect x="46.53846153846155" y="81.25" height="178.75" width="69.8076923076923" fill="#D50657"></rect><rect x="162.8846153846154" y="85.31250000000003" height="174.68749999999997" width="69.8076923076923" fill="#049AE6"></rect><rect x="279.2307692307692" y="132.4375" height="127.5625" width="69.8076923076923" fill="#F8C41B"></rect><rect x="395.5769230769231" y="215.3125" height="44.6875" width="69.8076923076923" fill="#32465B"></rect><rect x="511.9230769230769" y="218.5625" height="41.4375" width="69.8076923076923" fill="#E45E42"></rect><rect x="628.2692307692307" y="238.875" height="21.125" width="69.8076923076923" fill="#007C5A"></rect><rect x="744.6153846153846" y="258.375" height="1.625" width="69.8076923076923" fill="#FC69FF"></rect><rect x="860.9615384615385" y="259.1875" height="0.8125" width="69.8076923076923" fill="#3EC6CF"></rect><rect x="977.3076923076923" y="259.1875" height="0.8125" width="69.8076923076923" fill="#620A79"></rect><rect x="1093.6538461538462" y="259.1875" height="0.8125" width="69.8076923076923" fill="#D50657"></rect><text class="labels" style="fill: #444;" x="46.53846153846155" y="61.25">2 hrs 20 mins</text><text class="labels" style="fill: #444;" x="162.8846153846154" y="65.31250000000003">2 hrs 15 mins</text><text class="labels" style="fill: #444;" x="279.2307692307692" y="112.4375">1 hr 57 mins</text><text class="labels" style="fill: #444;" x="395.5769230769231" y="195.3125">55 mins</text><text class="labels" style="fill: #444;" x="511.9230769230769" y="198.5625">51 mins</text><text class="labels" style="fill: #444;" x="628.2692307692307" y="218.875">26 mins</text><text class="labels" style="fill: #444;" x="744.6153846153846" y="238.375">2 mins</text><text class="labels" style="fill: #444;" x="860.9615384615385" y="239.1875">1 min</text><text class="labels" style="fill: #444;" x="977.3076923076923" y="239.1875">1 min</text><text class="labels" style="fill: #444;" x="1093.6538461538462" y="239.1875">1 min</text></g></svg>