<svg xmlns="http://www.w3.org/2000/svg" width="1125" height="315"><g transform="translate(20, 20)"><g transform="translate(0, 260)" style="font-size: 15px; font-family: monospace; font-weight: 300;" fill="none" font-size="10" font-family="sans-serif" text-anchor="middle"><path class="domain" stroke="currentColor" d="M0.5,6V0.5H1085.5V6"></path><g class="tick" opacity="1" transform="translate(80.79787234042558,0)"><line stroke="currentColor" y2="6"></line><text fill="currentColor" y="9" dy="0.71em">TypeScript</text></g><g class="tick" opacity="1" transform="translate(196.2234042553192,0)"><line stroke="currentColor" y2="6"></line><text fill="currentColor" y="9" dy="0.71em">JSON</text></g><g class="tick" opacity="1" transform="translate(311.6489361702128,0)"><line stroke="currentColor" y2="6"></line><text fill="currentColor" y="9" dy="0.71em">JavaScript</text></g><g class="tick" opacity="1" transform="translate(427.07446808510645,0)"><line stroke="currentColor" y2="6"></line><text fill="currentColor" y="9" dy="0.71em">Scala</text></g><g class="tick" opacity="1" transform="translate(542.5,0)"><line stroke="currentColor" y2="6"></line><text fill="currentColor" y="9" dy="0.71em">Markdown</text></g><g class="tick" opacity="1" transform="translate(657.9255319148937,0)"><line stroke="currentColor" y2="6"></line><text fill="currentColor" y="9" dy="0.71em">Sublime Text Config</text></g><g class="tick" opacity="1" transform="translate(773.3510638297872,0)"><line stroke="currentColor" y2="6"></line><text fill="currentColor" y="9" dy="0.71em">C++</text></g><g class="tick" opacity="1" transform="translate(888.776595744681,0)"><line stroke="currentColor" y2="6"></line><text fill="currentColor" y="9" dy="0.71em">Solidity</text></g><g class="tick" opacity="1" transform="translate(1004.2021276595746,0)"><line stroke="currentColor" y2="6"></line><text fill="currentColor" y="9" dy="0.71em">Git Config</text></g></g><rect x="46.1702127659575" y="114.03508771929825" height="145.96491228070175" width="69.25531914893617" fill="#D50657"></rect><rect x="161.5957446808511" y="127.71929824561406" height="132.28070175438594" width="69.25531914893617" fill="#049AE6"></rect><rect x="277.0212765957447" y="209.8245614035088" height="50.175438596491205" width="69.25531914893617" fill="#F8C41B"></rect><rect x="392.44680851063833" y="217.80701754385967" height="42.19298245614033" width="69.25531914893617" fill="#32465B"></rect><rect x="507.87234042553195" y="222.3684210526316" height="37.63157894736841" width="69.25531914893617" fill="#E45E42"></rect><rect x="623.2978723404256" y="244.03508771929825" height="15.964912280701753" width="69.25531914893617" fill="#007C5A"></rect><rect x="738.7234042553191" y="246.31578947368422" height="13.68421052631578" width="69.25531914893617" fill="#FC69FF"></rect><rect x="854.1489361702129" y="247.45614035087718" height="12.543859649122822" width="69.25531914893617" fill="#3EC6CF"></rect><rect x="969.5744680851064" y="254.2982456140351" height="5.701754385964904" width="69.25531914893617" fill="#620A79"></rect><text class="labels" style="fill: #444;" x="46.1702127659575" y="94.03508771929825">1 hr 28 mins</text><text class="labels" style="fill: #444;" x="161.5957446808511" y="107.71929824561406">1 hr 16 mins</text><text class="labels" style="fill: #444;" x="277.0212765957447" y="189.8245614035088">44 mins</text><text class="labels" style="fill: #444;" x="392.44680851063833" y="197.80701754385967">37 mins</text><text class="labels" style="fill: #444;" x="507.87234042553195" y="202.3684210526316">33 mins</text><text class="labels" style="fill: #444;" x="623.2978723404256" y="224.03508771929825">14 mins</text><text class="labels" style="fill: #444;" x="738.7234042553191" y="226.31578947368422">12 mins</text><text class="labels" style="fill: #444;" x="854.1489361702129" y="227.45614035087718">11 mins</text><text class="labels" style="fill: #444;" x="969.5744680851064" y="234.2982456140351">5 mins</text></g></svg>