<svg xmlns="http://www.w3.org/2000/svg" width="1500" height="315"><g transform="translate(20, 20)"><g transform="translate(0, 260)" style="font-size: 15px; font-family: monospace; font-weight: 300;" fill="none" font-size="10" font-family="sans-serif" text-anchor="middle"><path class="domain" stroke="currentColor" d="M0.5,6V0.5H1460.5V6"></path><g class="tick" opacity="1" transform="translate(82.4193548387097,0)"><line stroke="currentColor" y2="6"></line><text fill="currentColor" y="9" dy="0.71em">Solidity</text></g><g class="tick" opacity="1" transform="translate(200.16129032258067,0)"><line stroke="currentColor" y2="6"></line><text fill="currentColor" y="9" dy="0.71em">Scala</text></g><g class="tick" opacity="1" transform="translate(317.90322580645164,0)"><line stroke="currentColor" y2="6"></line><text fill="currentColor" y="9" dy="0.71em">HTML</text></g><g class="tick" opacity="1" transform="translate(435.64516129032256,0)"><line stroke="currentColor" y2="6"></line><text fill="currentColor" y="9" dy="0.71em">Markdown</text></g><g class="tick" opacity="1" transform="translate(553.3870967741935,0)"><line stroke="currentColor" y2="6"></line><text fill="currentColor" y="9" dy="0.71em">JavaScript</text></g><g class="tick" opacity="1" transform="translate(671.1290322580645,0)"><line stroke="currentColor" y2="6"></line><text fill="currentColor" y="9" dy="0.71em">CSS</text></g><g class="tick" opacity="1" transform="translate(788.8709677419355,0)"><line stroke="currentColor" y2="6"></line><text fill="currentColor" y="9" dy="0.71em">JSON</text></g><g class="tick" opacity="1" transform="translate(906.6129032258065,0)"><line stroke="currentColor" y2="6"></line><text fill="currentColor" y="9" dy="0.71em">SCSS</text></g><g class="tick" opacity="1" transform="translate(1024.3548387096776,0)"><line stroke="currentColor" y2="6"></line><text fill="currentColor" y="9" dy="0.71em">TypeScript</text></g><g class="tick" opacity="1" transform="translate(1142.096774193548,0)"><line stroke="currentColor" y2="6"></line><text fill="currentColor" y="9" dy="0.71em">SQL</text></g><g class="tick" opacity="1" transform="translate(1259.8387096774193,0)"><line stroke="currentColor" y2="6"></line><text fill="currentColor" y="9" dy="0.71em">Git Config</text></g><g class="tick" opacity="1" transform="translate(1377.58064516129,0)"><line stroke="currentColor" y2="6"></line><text fill="currentColor" y="9" dy="0.71em">Text</text></g></g><rect x="47.09677419354841" y="27.253668763102738" height="232.74633123689728" width="70.64516129032258" fill="#D50657"></rect><rect x="164.8387096774194" y="62.41090146750522" height="197.58909853249477" width="70.64516129032258" fill="#049AE6"></rect><rect x="282.58064516129036" y="109.55974842767296" height="150.44025157232704" width="70.64516129032258" fill="#F8C41B"></rect><rect x="400.3225806451613" y="149.35010482180294" height="110.64989517819706" width="70.64516129032258" fill="#32465B"></rect><rect x="518.0645161290322" y="200.314465408805" height="59.685534591194994" width="70.64516129032258" fill="#E45E42"></rect><rect x="635.8064516129032" y="247.1907756813417" height="12.809224318658295" width="70.64516129032258" fill="#007C5A"></rect><rect x="753.5483870967741" y="256.7295597484277" height="3.2704402515723245" width="70.64516129032258" fill="#FC69FF"></rect><rect x="871.2903225806451" y="258.63731656184484" height="1.362683438155159" width="70.64516129032258" fill="#3EC6CF"></rect><rect x="989.0322580645161" y="258.9098532494759" height="1.0901467505241271" width="70.64516129032258" fill="#620A79"></rect><rect x="1106.7741935483868" y="258.9098532494759" height="1.0901467505241271" width="70.64516129032258" fill="#D50657"></rect><rect x="1224.516129032258" y="259.72746331236897" height="0.2725366876310318" width="70.64516129032258" fill="#049AE6"></rect><rect x="1342.2580645161288" y="259.72746331236897" height="0.2725366876310318" width="70.64516129032258" fill="#F8C41B"></rect><text class="labels" style="fill: #444;" x="47.09677419354841" y="7.253668763102738">8 hrs 54 mins</text><text class="labels" style="fill: #444;" x="164.8387096774194" y="42.41090146750522">7 hrs 25 mins</text><text class="labels" style="fill: #444;" x="282.58064516129036" y="89.55974842767296">5 hrs 52 mins</text><text class="labels" style="fill: #444;" x="400.3225806451613" y="129.35010482180294">4 hrs 6 mins</text><text class="labels" style="fill: #444;" x="518.0645161290322" y="180.314465408805">2 hrs 19 mins</text><text class="labels" style="fill: #444;" x="635.8064516129032" y="227.1907756813417">47 mins</text><text class="labels" style="fill: #444;" x="753.5483870967741" y="236.72955974842768">12 mins</text><text class="labels" style="fill: #444;" x="871.2903225806451" y="238.63731656184484">5 mins</text><text class="labels" style="fill: #444;" x="989.0322580645161" y="238.90985324947587">4 mins</text><text class="labels" style="fill: #444;" x="1106.7741935483868" y="238.90985324947587">4 mins</text><text class="labels" style="fill: #444;" x="1224.516129032258" y="239.72746331236897">1 min</text><text class="labels" style="fill: #444;" x="1342.2580645161288" y="239.72746331236897">1 min</text></g></svg>