<svg xmlns="http://www.w3.org/2000/svg" width="1125" height="315"><g transform="translate(20, 20)"><g transform="translate(0, 260)" style="font-size: 15px; font-family: monospace; font-weight: 300;" fill="none" font-size="10" font-family="sans-serif" text-anchor="middle"><path class="domain" stroke="currentColor" d="M0.5,6V0.5H1085.5V6"></path><g class="tick" opacity="1" transform="translate(80.79787234042558,0)"><line stroke="currentColor" y2="6"></line><text fill="currentColor" y="9" dy="0.71em">Solidity</text></g><g class="tick" opacity="1" transform="translate(196.2234042553192,0)"><line stroke="currentColor" y2="6"></line><text fill="currentColor" y="9" dy="0.71em">JavaScript</text></g><g class="tick" opacity="1" transform="translate(311.6489361702128,0)"><line stroke="currentColor" y2="6"></line><text fill="currentColor" y="9" dy="0.71em">Markdown</text></g><g class="tick" opacity="1" transform="translate(427.07446808510645,0)"><line stroke="currentColor" y2="6"></line><text fill="currentColor" y="9" dy="0.71em">Scala</text></g><g class="tick" opacity="1" transform="translate(542.5,0)"><line stroke="currentColor" y2="6"></line><text fill="currentColor" y="9" dy="0.71em">JSON</text></g><g class="tick" opacity="1" transform="translate(657.9255319148937,0)"><line stroke="currentColor" y2="6"></line><text fill="currentColor" y="9" dy="0.71em">TypeScript</text></g><g class="tick" opacity="1" transform="translate(773.3510638297872,0)"><line stroke="currentColor" y2="6"></line><text fill="currentColor" y="9" dy="0.71em">Sublime Text Config</text></g><g class="tick" opacity="1" transform="translate(888.776595744681,0)"><line stroke="currentColor" y2="6"></line><text fill="currentColor" y="9" dy="0.71em">C++</text></g><g class="tick" opacity="1" transform="translate(1004.2021276595746,0)"><line stroke="currentColor" y2="6"></line><text fill="currentColor" y="9" dy="0.71em">Git Config</text></g></g><rect x="46.1702127659575" y="25.768087215064412" height="234.2319127849356" width="69.25531914893617" fill="#D50657"></rect><rect x="161.5957446808511" y="126.52130822596631" height="133.47869177403368" width="69.25531914893617" fill="#049AE6"></rect><rect x="277.0212765957447" y="145.33201189296332" height="114.66798810703668" width="69.25531914893617" fill="#F8C41B"></rect><rect x="392.44680851063833" y="196.3528245787909" height="63.64717542120911" width="69.25531914893617" fill="#32465B"></rect><rect x="507.87234042553195" y="223.9246778989098" height="36.075322101090194" width="69.25531914893617" fill="#E45E42"></rect><rect x="623.2978723404256" y="227.01684836471753" height="32.98315163528247" width="69.25531914893617" fill="#007C5A"></rect><rect x="738.7234042553191" y="256.392467789891" height="3.6075322101090137" width="69.25531914893617" fill="#FC69FF"></rect><rect x="854.1489361702129" y="256.9078295341923" height="3.092170465807726" width="69.25531914893617" fill="#3EC6CF"></rect><rect x="969.5744680851064" y="258.19623389494546" height="1.8037661050545353" width="69.25531914893617" fill="#620A79"></rect><text class="labels" style="fill: #444;" x="46.1702127659575" y="5.768087215064412">9 hrs 9 mins</text><text class="labels" style="fill: #444;" x="161.5957446808511" y="106.52130822596631">5 hrs 18 mins</text><text class="labels" style="fill: #444;" x="277.0212765957447" y="125.33201189296332">4 hrs 45 mins</text><text class="labels" style="fill: #444;" x="392.44680851063833" y="176.3528245787909">2 hrs 47 mins</text><text class="labels" style="fill: #444;" x="507.87234042553195" y="203.9246778989098">1 hr 40 mins</text><text class="labels" style="fill: #444;" x="623.2978723404256" y="207.01684836471753">1 hr 28 mins</text><text class="labels" style="fill: #444;" x="738.7234042553191" y="236.392467789891">14 mins</text><text class="labels" style="fill: #444;" x="854.1489361702129" y="236.90782953419227">12 mins</text><text class="labels" style="fill: #444;" x="969.5744680851064" y="238.19623389494546">7 mins</text></g></svg>