<svg xmlns="http://www.w3.org/2000/svg" width="1250" height="315"><g transform="translate(20, 20)"><g transform="translate(0, 260)" style="font-size: 15px; font-family: monospace; font-weight: 300;" fill="none" font-size="10" font-family="sans-serif" text-anchor="middle"><path class="domain" stroke="currentColor" d="M0.5,6V0.5H1210.5V6"></path><g class="tick" opacity="1" transform="translate(81.44230769230771,0)"><line stroke="currentColor" y2="6"></line><text fill="currentColor" y="9" dy="0.71em">Solidity</text></g><g class="tick" opacity="1" transform="translate(197.78846153846155,0)"><line stroke="currentColor" y2="6"></line><text fill="currentColor" y="9" dy="0.71em">JavaScript</text></g><g class="tick" opacity="1" transform="translate(314.13461538461536,0)"><line stroke="currentColor" y2="6"></line><text fill="currentColor" y="9" dy="0.71em">Markdown</text></g><g class="tick" opacity="1" transform="translate(430.4807692307692,0)"><line stroke="currentColor" y2="6"></line><text fill="currentColor" y="9" dy="0.71em">HTML</text></g><g class="tick" opacity="1" transform="translate(546.8269230769231,0)"><line stroke="currentColor" y2="6"></line><text fill="currentColor" y="9" dy="0.71em">Scala</text></g><g class="tick" opacity="1" transform="translate(663.1730769230769,0)"><line stroke="currentColor" y2="6"></line><text fill="currentColor" y="9" dy="0.71em">JSON</text></g><g class="tick" opacity="1" transform="translate(779.5192307692308,0)"><line stroke="currentColor" y2="6"></line><text fill="currentColor" y="9" dy="0.71em">CSS</text></g><g class="tick" opacity="1" transform="translate(895.8653846153846,0)"><line stroke="currentColor" y2="6"></line><text fill="currentColor" y="9" dy="0.71em">TypeScript</text></g><g class="tick" opacity="1" transform="translate(1012.2115384615385,0)"><line stroke="currentColor" y2="6"></line><text fill="currentColor" y="9" dy="0.71em">Git Config</text></g><g class="tick" opacity="1" transform="translate(1128.5576923076924,0)"><line stroke="currentColor" y2="6"></line><text fill="currentColor" y="9" dy="0.71em">Text</text></g></g><rect x="46.53846153846155" y="19.534184823441027" height="240.46581517655898" width="69.8076923076923" fill="#D50657"></rect><rect x="162.8846153846154" y="159.98497370398195" height="100.01502629601805" width="69.8076923076923" fill="#049AE6"></rect><rect x="279.2307692307692" y="160.3756574004508" height="99.62434259954921" width="69.8076923076923" fill="#F8C41B"></rect><rect x="395.5769230769231" y="212.92261457550714" height="47.07738542449286" width="69.8076923076923" fill="#32465B"></rect><rect x="511.9230769230769" y="216.0480841472577" height="43.9519158527423" width="69.8076923076923" fill="#E45E42"></rect><rect x="628.2692307692307" y="237.14500375657403" height="22.854996243425973" width="69.8076923076923" fill="#007C5A"></rect><rect x="744.6153846153846" y="250.81893313298272" height="9.181066867017279" width="69.8076923076923" fill="#FC69FF"></rect><rect x="860.9615384615385" y="250.81893313298272" height="9.181066867017279" width="69.8076923076923" fill="#3EC6CF"></rect><rect x="977.3076923076923" y="258.82794891059353" height="1.172051089406466" width="69.8076923076923" fill="#620A79"></rect><rect x="1093.6538461538462" y="259.8046581517656" height="0.19534184823442047" width="69.8076923076923" fill="#D50657"></rect><text class="labels" style="fill: #444;" x="46.53846153846155" y="-0.46581517655897287">12 hrs 31 mins</text><text class="labels" style="fill: #444;" x="162.8846153846154" y="139.98497370398195">5 hrs 12 mins</text><text class="labels" style="fill: #444;" x="279.2307692307692" y="140.3756574004508">5 hrs 10 mins</text><text class="labels" style="fill: #444;" x="395.5769230769231" y="192.92261457550714">2 hrs 41 mins</text><text class="labels" style="fill: #444;" x="511.9230769230769" y="196.0480841472577">2 hrs 25 mins</text><text class="labels" style="fill: #444;" x="628.2692307692307" y="217.14500375657403">1 hr 17 mins</text><text class="labels" style="fill: #444;" x="744.6153846153846" y="230.81893313298272">47 mins</text><text class="labels" style="fill: #444;" x="860.9615384615385" y="230.81893313298272">47 mins</text><text class="labels" style="fill: #444;" x="977.3076923076923" y="238.82794891059353">6 mins</text><text class="labels" style="fill: #444;" x="1093.6538461538462" y="239.80465815176558">1 min</text></g></svg>