<svg xmlns="http://www.w3.org/2000/svg" width="1250" height="315"><g transform="translate(20, 20)"><g transform="translate(0, 260)" style="font-size: 15px; font-family: monospace; font-weight: 300;" fill="none" font-size="10" font-family="sans-serif" text-anchor="middle"><path class="domain" stroke="currentColor" d="M0.5,6V0.5H1210.5V6"></path><g class="tick" opacity="1" transform="translate(81.44230769230771,0)"><line stroke="currentColor" y2="6"></line><text fill="currentColor" y="9" dy="0.71em">Scala</text></g><g class="tick" opacity="1" transform="translate(197.78846153846155,0)"><line stroke="currentColor" y2="6"></line><text fill="currentColor" y="9" dy="0.71em">Solidity</text></g><g class="tick" opacity="1" transform="translate(314.13461538461536,0)"><line stroke="currentColor" y2="6"></line><text fill="currentColor" y="9" dy="0.71em">HTML</text></g><g class="tick" opacity="1" transform="translate(430.4807692307692,0)"><line stroke="currentColor" y2="6"></line><text fill="currentColor" y="9" dy="0.71em">TypeScript</text></g><g class="tick" opacity="1" transform="translate(546.8269230769231,0)"><line stroke="currentColor" y2="6"></line><text fill="currentColor" y="9" dy="0.71em">JSON</text></g><g class="tick" opacity="1" transform="translate(663.1730769230769,0)"><line stroke="currentColor" y2="6"></line><text fill="currentColor" y="9" dy="0.71em">Markdown</text></g><g class="tick" opacity="1" transform="translate(779.5192307692308,0)"><line stroke="currentColor" y2="6"></line><text fill="currentColor" y="9" dy="0.71em">JavaScript</text></g><g class="tick" opacity="1" transform="translate(895.8653846153846,0)"><line stroke="currentColor" y2="6"></line><text fill="currentColor" y="9" dy="0.71em">SQL</text></g><g class="tick" opacity="1" transform="translate(1012.2115384615385,0)"><line stroke="currentColor" y2="6"></line><text fill="currentColor" y="9" dy="0.71em">Git Config</text></g><g class="tick" opacity="1" transform="translate(1128.5576923076924,0)"><line stroke="currentColor" y2="6"></line><text fill="currentColor" y="9" dy="0.71em">SCSS</text></g></g><rect x="46.53846153846155" y="35.18267929634641" height="224.8173207036536" width="69.8076923076923" fill="#D50657"></rect><rect x="162.8846153846154" y="109.06630581867387" height="150.93369418132613" width="69.8076923076923" fill="#049AE6"></rect><rect x="279.2307692307692" y="150.58186738836264" height="109.41813261163736" width="69.8076923076923" fill="#F8C41B"></rect><rect x="395.5769230769231" y="184.35723951285522" height="75.64276048714478" width="69.8076923076923" fill="#32465B"></rect><rect x="511.9230769230769" y="219.8917456021651" height="40.10825439783491" width="69.8076923076923" fill="#E45E42"></rect><rect x="628.2692307692307" y="240.297699594046" height="19.70230040595399" width="69.8076923076923" fill="#007C5A"></rect><rect x="744.6153846153846" y="251.55615696887688" height="8.443843031123123" width="69.8076923076923" fill="#FC69FF"></rect><rect x="860.9615384615385" y="258.9445196211096" height="1.0554803788904223" width="69.8076923076923" fill="#3EC6CF"></rect><rect x="977.3076923076923" y="259.29634641407307" height="0.7036535859269293" width="69.8076923076923" fill="#620A79"></rect><rect x="1093.6538461538462" y="259.29634641407307" height="0.7036535859269293" width="69.8076923076923" fill="#D50657"></rect><text class="labels" style="fill: #444;" x="46.53846153846155" y="15.182679296346407">6 hrs 39 mins</text><text class="labels" style="fill: #444;" x="162.8846153846154" y="89.06630581867387">4 hrs 29 mins</text><text class="labels" style="fill: #444;" x="279.2307692307692" y="130.58186738836264">3 hrs 11 mins</text><text class="labels" style="fill: #444;" x="395.5769230769231" y="164.35723951285522">2 hrs 15 mins</text><text class="labels" style="fill: #444;" x="511.9230769230769" y="199.8917456021651">1 hr 14 mins</text><text class="labels" style="fill: #444;" x="628.2692307692307" y="220.297699594046">56 mins</text><text class="labels" style="fill: #444;" x="744.6153846153846" y="231.55615696887688">24 mins</text><text class="labels" style="fill: #444;" x="860.9615384615385" y="238.94451962110958">3 mins</text><text class="labels" style="fill: #444;" x="977.3076923076923" y="239.29634641407307">2 mins</text><text class="labels" style="fill: #444;" x="1093.6538461538462" y="239.29634641407307">2 mins</text></g></svg>