<svg xmlns="http://www.w3.org/2000/svg" width="750" height="315"><g transform="translate(20, 20)"><g transform="translate(0, 260)" style="font-size: 15px; font-family: monospace; font-weight: 300;" fill="none" font-size="10" font-family="sans-serif" text-anchor="middle"><path class="domain" stroke="currentColor" d="M0.5,6V0.5H710.5V6"></path><g class="tick" opacity="1" transform="translate(77.65625,0)"><line stroke="currentColor" y2="6"></line><text fill="currentColor" y="9" dy="0.71em">TypeScript</text></g><g class="tick" opacity="1" transform="translate(188.59375,0)"><line stroke="currentColor" y2="6"></line><text fill="currentColor" y="9" dy="0.71em">Scala</text></g><g class="tick" opacity="1" transform="translate(299.53125,0)"><line stroke="currentColor" y2="6"></line><text fill="currentColor" y="9" dy="0.71em">Sublime Text Config</text></g><g class="tick" opacity="1" transform="translate(410.46875000000006,0)"><line stroke="currentColor" y2="6"></line><text fill="currentColor" y="9" dy="0.71em">C++</text></g><g class="tick" opacity="1" transform="translate(521.40625,0)"><line stroke="currentColor" y2="6"></line><text fill="currentColor" y="9" dy="0.71em">Markdown</text></g><g class="tick" opacity="1" transform="translate(632.3437500000001,0)"><line stroke="currentColor" y2="6"></line><text fill="currentColor" y="9" dy="0.71em">JSON</text></g></g><rect x="44.375" y="184.39716312056737" height="75.60283687943263" width="66.5625" fill="#D50657"></rect><rect x="155.3125" y="191.77304964539005" height="68.22695035460995" width="66.5625" fill="#049AE6"></rect><rect x="266.25" y="237.87234042553192" height="22.127659574468083" width="66.5625" fill="#F8C41B"></rect><rect x="377.18750000000006" y="237.87234042553192" height="22.127659574468083" width="66.5625" fill="#32465B"></rect><rect x="488.12500000000006" y="250.78014184397162" height="9.21985815602838" width="66.5625" fill="#E45E42"></rect><rect x="599.0625000000001" y="258.1560283687943" height="1.8439716312057044" width="66.5625" fill="#007C5A"></rect><text class="labels" style="fill: #444;" x="44.375" y="164.39716312056737">41 mins</text><text class="labels" style="fill: #444;" x="155.3125" y="171.77304964539005">37 mins</text><text class="labels" style="fill: #444;" x="266.25" y="217.87234042553192">12 mins</text><text class="labels" style="fill: #444;" x="377.18750000000006" y="217.87234042553192">12 mins</text><text class="labels" style="fill: #444;" x="488.12500000000006" y="230.78014184397162">5 mins</text><text class="labels" style="fill: #444;" x="599.0625000000001" y="238.1560283687943">1 min</text></g></svg>